<?xml version="1.0" encoding="utf-8" standalone="no"?>
<!DOCTYPE svg PUBLIC "-//W3C//DTD SVG 1.1//EN"
  "http://www.w3.org/Graphics/SVG/1.1/DTD/svg11.dtd">
<svg xmlns:xlink="http://www.w3.org/1999/xlink" width="576pt" height="288pt" viewBox="0 0 576 288" xmlns="http://www.w3.org/2000/svg" version="1.1">
 <metadata>
  <rdf:RDF xmlns:dc="http://purl.org/dc/elements/1.1/" xmlns:cc="http://creativecommons.org/ns#" xmlns:rdf="http://www.w3.org/1999/02/22-rdf-syntax-ns#">
   <cc:Work>
    <dc:type rdf:resource="http://purl.org/dc/dcmitype/StillImage"/>
    <dc:date>2026-05-01T15:21:10.195888</dc:date>
    <dc:format>image/svg+xml</dc:format>
    <dc:creator>
     <cc:Agent>
      <dc:title>Matplotlib v3.10.9, https://matplotlib.org/</dc:title>
     </cc:Agent>
    </dc:creator>
   </cc:Work>
  </rdf:RDF>
 </metadata>
 <defs>
  <style type="text/css">*{stroke-linejoin: round; stroke-linecap: butt}</style>
 </defs>
 <g id="figure_1">
  <g id="patch_1">
   <path d="M 0 288 
L 576 288 
L 576 0 
L 0 0 
z
" style="fill: #ffffff"/>
  </g>
  <g id="axes_1">
   <g id="patch_2">
    <path d="M 47.72 150.144503 
L 565.2 150.144503 
L 565.2 26.88 
L 47.72 26.88 
z
" style="fill: #ffffff"/>
   </g>
   <g id="patch_3">
    <path d="M 71.241818 150.144503 
L 95.061381 150.144503 
L 95.061381 41.526917 
L 71.241818 41.526917 
z
" clip-path="url(#p000f02c1bb)" style="fill: #1f77b4"/>
   </g>
   <g id="patch_4">
    <path d="M 101.016272 150.144503 
L 124.835834 150.144503 
L 124.835834 101.321446 
L 101.016272 101.321446 
z
" clip-path="url(#p000f02c1bb)" style="fill: #1f77b4"/>
   </g>
   <g id="patch_5">
    <path d="M 130.790725 150.144503 
L 154.610288 150.144503 
L 154.610288 150.144503 
L 130.790725 150.144503 
z
" clip-path="url(#p000f02c1bb)" style="fill: #1f77b4"/>
   </g>
   <g id="patch_6">
    <path d="M 160.565178 150.144503 
L 184.384741 150.144503 
L 184.384741 150.144503 
L 160.565178 150.144503 
z
" clip-path="url(#p000f02c1bb)" style="fill: #1f77b4"/>
   </g>
   <g id="patch_7">
    <path d="M 190.339632 150.144503 
L 214.159194 150.144503 
L 214.159194 32.749738 
L 190.339632 32.749738 
z
" clip-path="url(#p000f02c1bb)" style="fill: #1f77b4"/>
   </g>
   <g id="patch_8">
    <path d="M 220.114085 150.144503 
L 243.933648 150.144503 
L 243.933648 111.195772 
L 220.114085 111.195772 
z
" clip-path="url(#p000f02c1bb)" style="fill: #1f77b4"/>
   </g>
   <g id="patch_9">
    <path d="M 249.888539 150.144503 
L 273.708101 150.144503 
L 273.708101 150.144503 
L 249.888539 150.144503 
z
" clip-path="url(#p000f02c1bb)" style="fill: #1f77b4"/>
   </g>
   <g id="patch_10">
    <path d="M 279.662992 150.144503 
L 303.482555 150.144503 
L 303.482555 150.144503 
L 279.662992 150.144503 
z
" clip-path="url(#p000f02c1bb)" style="fill: #1f77b4"/>
   </g>
   <g id="patch_11">
    <path d="M 309.437445 150.144503 
L 333.257008 150.144503 
L 333.257008 36.589754 
L 309.437445 36.589754 
z
" clip-path="url(#p000f02c1bb)" style="fill: #1f77b4"/>
   </g>
   <g id="patch_12">
    <path d="M 339.211899 150.144503 
L 363.031461 150.144503 
L 363.031461 147.401634 
L 339.211899 147.401634 
z
" clip-path="url(#p000f02c1bb)" style="fill: #1f77b4"/>
   </g>
   <g id="patch_13">
    <path d="M 368.986352 150.144503 
L 392.805915 150.144503 
L 392.805915 150.144503 
L 368.986352 150.144503 
z
" clip-path="url(#p000f02c1bb)" style="fill: #1f77b4"/>
   </g>
   <g id="patch_14">
    <path d="M 398.760806 150.144503 
L 422.580368 150.144503 
L 422.580368 150.144503 
L 398.760806 150.144503 
z
" clip-path="url(#p000f02c1bb)" style="fill: #1f77b4"/>
   </g>
   <g id="patch_15">
    <path d="M 428.535259 150.144503 
L 452.354822 150.144503 
L 452.354822 32.749738 
L 428.535259 32.749738 
z
" clip-path="url(#p000f02c1bb)" style="fill: #1f77b4"/>
   </g>
   <g id="patch_16">
    <path d="M 458.309712 150.144503 
L 482.129275 150.144503 
L 482.129275 109.001478 
L 458.309712 109.001478 
z
" clip-path="url(#p000f02c1bb)" style="fill: #1f77b4"/>
   </g>
   <g id="patch_17">
    <path d="M 488.084166 150.144503 
L 511.903728 150.144503 
L 511.903728 150.144503 
L 488.084166 150.144503 
z
" clip-path="url(#p000f02c1bb)" style="fill: #1f77b4"/>
   </g>
   <g id="patch_18">
    <path d="M 517.858619 150.144503 
L 541.678182 150.144503 
L 541.678182 150.144503 
L 517.858619 150.144503 
z
" clip-path="url(#p000f02c1bb)" style="fill: #1f77b4"/>
   </g>
   <g id="matplotlib.axis_1">
    <g id="xtick_1">
     <g id="line2d_1">
      <defs>
       <path id="m91ac478196" d="M 0 0 
L 0 3.5 
" style="stroke: #000000; stroke-width: 0.8"/>
      </defs>
      <g>
       <use xlink:href="#m91ac478196" x="83.1516" y="150.144503" style="stroke: #000000; stroke-width: 0.8"/>
      </g>
     </g>
     <g id="text_1">
      <!-- bcst_easy -->
      <g transform="translate(56.416705 203.713198) rotate(-60) scale(0.1 -0.1)">
       <defs>
        <path id="DejaVuSans-62" d="M 3116 1747 
Q 3116 2381 2855 2742 
Q 2594 3103 2138 3103 
Q 1681 3103 1420 2742 
Q 1159 2381 1159 1747 
Q 1159 1113 1420 752 
Q 1681 391 2138 391 
Q 2594 391 2855 752 
Q 3116 1113 3116 1747 
z
M 1159 2969 
Q 1341 3281 1617 3432 
Q 1894 3584 2278 3584 
Q 2916 3584 3314 3078 
Q 3713 2572 3713 1747 
Q 3713 922 3314 415 
Q 2916 -91 2278 -91 
Q 1894 -91 1617 61 
Q 1341 213 1159 525 
L 1159 0 
L 581 0 
L 581 4863 
L 1159 4863 
L 1159 2969 
z
" transform="scale(0.015625)"/>
        <path id="DejaVuSans-63" d="M 3122 3366 
L 3122 2828 
Q 2878 2963 2633 3030 
Q 2388 3097 2138 3097 
Q 1578 3097 1268 2742 
Q 959 2388 959 1747 
Q 959 1106 1268 751 
Q 1578 397 2138 397 
Q 2388 397 2633 464 
Q 2878 531 3122 666 
L 3122 134 
Q 2881 22 2623 -34 
Q 2366 -91 2075 -91 
Q 1284 -91 818 406 
Q 353 903 353 1747 
Q 353 2603 823 3093 
Q 1294 3584 2113 3584 
Q 2378 3584 2631 3529 
Q 2884 3475 3122 3366 
z
" transform="scale(0.015625)"/>
        <path id="DejaVuSans-73" d="M 2834 3397 
L 2834 2853 
Q 2591 2978 2328 3040 
Q 2066 3103 1784 3103 
Q 1356 3103 1142 2972 
Q 928 2841 928 2578 
Q 928 2378 1081 2264 
Q 1234 2150 1697 2047 
L 1894 2003 
Q 2506 1872 2764 1633 
Q 3022 1394 3022 966 
Q 3022 478 2636 193 
Q 2250 -91 1575 -91 
Q 1294 -91 989 -36 
Q 684 19 347 128 
L 347 722 
Q 666 556 975 473 
Q 1284 391 1588 391 
Q 1994 391 2212 530 
Q 2431 669 2431 922 
Q 2431 1156 2273 1281 
Q 2116 1406 1581 1522 
L 1381 1569 
Q 847 1681 609 1914 
Q 372 2147 372 2553 
Q 372 3047 722 3315 
Q 1072 3584 1716 3584 
Q 2034 3584 2315 3537 
Q 2597 3491 2834 3397 
z
" transform="scale(0.015625)"/>
        <path id="DejaVuSans-74" d="M 1172 4494 
L 1172 3500 
L 2356 3500 
L 2356 3053 
L 1172 3053 
L 1172 1153 
Q 1172 725 1289 603 
Q 1406 481 1766 481 
L 2356 481 
L 2356 0 
L 1766 0 
Q 1100 0 847 248 
Q 594 497 594 1153 
L 594 3053 
L 172 3053 
L 172 3500 
L 594 3500 
L 594 4494 
L 1172 4494 
z
" transform="scale(0.015625)"/>
        <path id="DejaVuSans-5f" d="M 3263 -1063 
L 3263 -1509 
L -63 -1509 
L -63 -1063 
L 3263 -1063 
z
" transform="scale(0.015625)"/>
        <path id="DejaVuSans-65" d="M 3597 1894 
L 3597 1613 
L 953 1613 
Q 991 1019 1311 708 
Q 1631 397 2203 397 
Q 2534 397 2845 478 
Q 3156 559 3463 722 
L 3463 178 
Q 3153 47 2828 -22 
Q 2503 -91 2169 -91 
Q 1331 -91 842 396 
Q 353 884 353 1716 
Q 353 2575 817 3079 
Q 1281 3584 2069 3584 
Q 2775 3584 3186 3129 
Q 3597 2675 3597 1894 
z
M 3022 2063 
Q 3016 2534 2758 2815 
Q 2500 3097 2075 3097 
Q 1594 3097 1305 2825 
Q 1016 2553 972 2059 
L 3022 2063 
z
" transform="scale(0.015625)"/>
        <path id="DejaVuSans-61" d="M 2194 1759 
Q 1497 1759 1228 1600 
Q 959 1441 959 1056 
Q 959 750 1161 570 
Q 1363 391 1709 391 
Q 2188 391 2477 730 
Q 2766 1069 2766 1631 
L 2766 1759 
L 2194 1759 
z
M 3341 1997 
L 3341 0 
L 2766 0 
L 2766 531 
Q 2569 213 2275 61 
Q 1981 -91 1556 -91 
Q 1019 -91 701 211 
Q 384 513 384 1019 
Q 384 1609 779 1909 
Q 1175 2209 1959 2209 
L 2766 2209 
L 2766 2266 
Q 2766 2663 2505 2880 
Q 2244 3097 1772 3097 
Q 1472 3097 1187 3025 
Q 903 2953 641 2809 
L 641 3341 
Q 956 3463 1253 3523 
Q 1550 3584 1831 3584 
Q 2591 3584 2966 3190 
Q 3341 2797 3341 1997 
z
" transform="scale(0.015625)"/>
        <path id="DejaVuSans-79" d="M 2059 -325 
Q 1816 -950 1584 -1140 
Q 1353 -1331 966 -1331 
L 506 -1331 
L 506 -850 
L 844 -850 
Q 1081 -850 1212 -737 
Q 1344 -625 1503 -206 
L 1606 56 
L 191 3500 
L 800 3500 
L 1894 763 
L 2988 3500 
L 3597 3500 
L 2059 -325 
z
" transform="scale(0.015625)"/>
       </defs>
       <use xlink:href="#DejaVuSans-62"/>
       <use xlink:href="#DejaVuSans-63" transform="translate(63.476562 0)"/>
       <use xlink:href="#DejaVuSans-73" transform="translate(118.457031 0)"/>
       <use xlink:href="#DejaVuSans-74" transform="translate(170.556641 0)"/>
       <use xlink:href="#DejaVuSans-5f" transform="translate(209.765625 0)"/>
       <use xlink:href="#DejaVuSans-65" transform="translate(259.765625 0)"/>
       <use xlink:href="#DejaVuSans-61" transform="translate(321.289062 0)"/>
       <use xlink:href="#DejaVuSans-73" transform="translate(382.568359 0)"/>
       <use xlink:href="#DejaVuSans-79" transform="translate(434.667969 0)"/>
      </g>
     </g>
    </g>
    <g id="xtick_2">
     <g id="line2d_2">
      <g>
       <use xlink:href="#m91ac478196" x="112.926053" y="150.144503" style="stroke: #000000; stroke-width: 0.8"/>
      </g>
     </g>
     <g id="text_2">
      <!-- bcst_hard -->
      <g transform="translate(86.520846 203.142162) rotate(-60) scale(0.1 -0.1)">
       <defs>
        <path id="DejaVuSans-68" d="M 3513 2113 
L 3513 0 
L 2938 0 
L 2938 2094 
Q 2938 2591 2744 2837 
Q 2550 3084 2163 3084 
Q 1697 3084 1428 2787 
Q 1159 2491 1159 1978 
L 1159 0 
L 581 0 
L 581 4863 
L 1159 4863 
L 1159 2956 
Q 1366 3272 1645 3428 
Q 1925 3584 2291 3584 
Q 2894 3584 3203 3211 
Q 3513 2838 3513 2113 
z
" transform="scale(0.015625)"/>
        <path id="DejaVuSans-72" d="M 2631 2963 
Q 2534 3019 2420 3045 
Q 2306 3072 2169 3072 
Q 1681 3072 1420 2755 
Q 1159 2438 1159 1844 
L 1159 0 
L 581 0 
L 581 3500 
L 1159 3500 
L 1159 2956 
Q 1341 3275 1631 3429 
Q 1922 3584 2338 3584 
Q 2397 3584 2469 3576 
Q 2541 3569 2628 3553 
L 2631 2963 
z
" transform="scale(0.015625)"/>
        <path id="DejaVuSans-64" d="M 2906 2969 
L 2906 4863 
L 3481 4863 
L 3481 0 
L 2906 0 
L 2906 525 
Q 2725 213 2448 61 
Q 2172 -91 1784 -91 
Q 1150 -91 751 415 
Q 353 922 353 1747 
Q 353 2572 751 3078 
Q 1150 3584 1784 3584 
Q 2172 3584 2448 3432 
Q 2725 3281 2906 2969 
z
M 947 1747 
Q 947 1113 1208 752 
Q 1469 391 1925 391 
Q 2381 391 2643 752 
Q 2906 1113 2906 1747 
Q 2906 2381 2643 2742 
Q 2381 3103 1925 3103 
Q 1469 3103 1208 2742 
Q 947 2381 947 1747 
z
" transform="scale(0.015625)"/>
       </defs>
       <use xlink:href="#DejaVuSans-62"/>
       <use xlink:href="#DejaVuSans-63" transform="translate(63.476562 0)"/>
       <use xlink:href="#DejaVuSans-73" transform="translate(118.457031 0)"/>
       <use xlink:href="#DejaVuSans-74" transform="translate(170.556641 0)"/>
       <use xlink:href="#DejaVuSans-5f" transform="translate(209.765625 0)"/>
       <use xlink:href="#DejaVuSans-68" transform="translate(259.765625 0)"/>
       <use xlink:href="#DejaVuSans-61" transform="translate(323.144531 0)"/>
       <use xlink:href="#DejaVuSans-72" transform="translate(384.423828 0)"/>
       <use xlink:href="#DejaVuSans-64" transform="translate(423.787109 0)"/>
      </g>
     </g>
    </g>
    <g id="xtick_3">
     <g id="line2d_3">
      <g>
       <use xlink:href="#m91ac478196" x="142.700506" y="150.144503" style="stroke: #000000; stroke-width: 0.8"/>
      </g>
     </g>
     <g id="text_3">
      <!-- bcst_stress_impossible -->
      <g transform="translate(83.6453 259.693621) rotate(-60) scale(0.1 -0.1)">
       <defs>
        <path id="DejaVuSans-69" d="M 603 3500 
L 1178 3500 
L 1178 0 
L 603 0 
L 603 3500 
z
M 603 4863 
L 1178 4863 
L 1178 4134 
L 603 4134 
L 603 4863 
z
" transform="scale(0.015625)"/>
        <path id="DejaVuSans-6d" d="M 3328 2828 
Q 3544 3216 3844 3400 
Q 4144 3584 4550 3584 
Q 5097 3584 5394 3201 
Q 5691 2819 5691 2113 
L 5691 0 
L 5113 0 
L 5113 2094 
Q 5113 2597 4934 2840 
Q 4756 3084 4391 3084 
Q 3944 3084 3684 2787 
Q 3425 2491 3425 1978 
L 3425 0 
L 2847 0 
L 2847 2094 
Q 2847 2600 2669 2842 
Q 2491 3084 2119 3084 
Q 1678 3084 1418 2786 
Q 1159 2488 1159 1978 
L 1159 0 
L 581 0 
L 581 3500 
L 1159 3500 
L 1159 2956 
Q 1356 3278 1631 3431 
Q 1906 3584 2284 3584 
Q 2666 3584 2933 3390 
Q 3200 3197 3328 2828 
z
" transform="scale(0.015625)"/>
        <path id="DejaVuSans-70" d="M 1159 525 
L 1159 -1331 
L 581 -1331 
L 581 3500 
L 1159 3500 
L 1159 2969 
Q 1341 3281 1617 3432 
Q 1894 3584 2278 3584 
Q 2916 3584 3314 3078 
Q 3713 2572 3713 1747 
Q 3713 922 3314 415 
Q 2916 -91 2278 -91 
Q 1894 -91 1617 61 
Q 1341 213 1159 525 
z
M 3116 1747 
Q 3116 2381 2855 2742 
Q 2594 3103 2138 3103 
Q 1681 3103 1420 2742 
Q 1159 2381 1159 1747 
Q 1159 1113 1420 752 
Q 1681 391 2138 391 
Q 2594 391 2855 752 
Q 3116 1113 3116 1747 
z
" transform="scale(0.015625)"/>
        <path id="DejaVuSans-6f" d="M 1959 3097 
Q 1497 3097 1228 2736 
Q 959 2375 959 1747 
Q 959 1119 1226 758 
Q 1494 397 1959 397 
Q 2419 397 2687 759 
Q 2956 1122 2956 1747 
Q 2956 2369 2687 2733 
Q 2419 3097 1959 3097 
z
M 1959 3584 
Q 2709 3584 3137 3096 
Q 3566 2609 3566 1747 
Q 3566 888 3137 398 
Q 2709 -91 1959 -91 
Q 1206 -91 779 398 
Q 353 888 353 1747 
Q 353 2609 779 3096 
Q 1206 3584 1959 3584 
z
" transform="scale(0.015625)"/>
        <path id="DejaVuSans-6c" d="M 603 4863 
L 1178 4863 
L 1178 0 
L 603 0 
L 603 4863 
z
" transform="scale(0.015625)"/>
       </defs>
       <use xlink:href="#DejaVuSans-62"/>
       <use xlink:href="#DejaVuSans-63" transform="translate(63.476562 0)"/>
       <use xlink:href="#DejaVuSans-73" transform="translate(118.457031 0)"/>
       <use xlink:href="#DejaVuSans-74" transform="translate(170.556641 0)"/>
       <use xlink:href="#DejaVuSans-5f" transform="translate(209.765625 0)"/>
       <use xlink:href="#DejaVuSans-73" transform="translate(259.765625 0)"/>
       <use xlink:href="#DejaVuSans-74" transform="translate(311.865234 0)"/>
       <use xlink:href="#DejaVuSans-72" transform="translate(351.074219 0)"/>
       <use xlink:href="#DejaVuSans-65" transform="translate(389.9375 0)"/>
       <use xlink:href="#DejaVuSans-73" transform="translate(451.460938 0)"/>
       <use xlink:href="#DejaVuSans-73" transform="translate(503.560547 0)"/>
       <use xlink:href="#DejaVuSans-5f" transform="translate(555.660156 0)"/>
       <use xlink:href="#DejaVuSans-69" transform="translate(605.660156 0)"/>
       <use xlink:href="#DejaVuSans-6d" transform="translate(633.443359 0)"/>
       <use xlink:href="#DejaVuSans-70" transform="translate(730.855469 0)"/>
       <use xlink:href="#DejaVuSans-6f" transform="translate(794.332031 0)"/>
       <use xlink:href="#DejaVuSans-73" transform="translate(855.513672 0)"/>
       <use xlink:href="#DejaVuSans-73" transform="translate(907.613281 0)"/>
       <use xlink:href="#DejaVuSans-69" transform="translate(959.712891 0)"/>
       <use xlink:href="#DejaVuSans-62" transform="translate(987.496094 0)"/>
       <use xlink:href="#DejaVuSans-6c" transform="translate(1050.972656 0)"/>
       <use xlink:href="#DejaVuSans-65" transform="translate(1078.755859 0)"/>
      </g>
     </g>
    </g>
    <g id="xtick_4">
     <g id="line2d_4">
      <g>
       <use xlink:href="#m91ac478196" x="172.47496" y="150.144503" style="stroke: #000000; stroke-width: 0.8"/>
      </g>
     </g>
     <g id="text_4">
      <!-- bcst_stress_unobservable -->
      <g transform="translate(106.179909 272.233398) rotate(-60) scale(0.1 -0.1)">
       <defs>
        <path id="DejaVuSans-75" d="M 544 1381 
L 544 3500 
L 1119 3500 
L 1119 1403 
Q 1119 906 1312 657 
Q 1506 409 1894 409 
Q 2359 409 2629 706 
Q 2900 1003 2900 1516 
L 2900 3500 
L 3475 3500 
L 3475 0 
L 2900 0 
L 2900 538 
Q 2691 219 2414 64 
Q 2138 -91 1772 -91 
Q 1169 -91 856 284 
Q 544 659 544 1381 
z
M 1991 3584 
L 1991 3584 
z
" transform="scale(0.015625)"/>
        <path id="DejaVuSans-6e" d="M 3513 2113 
L 3513 0 
L 2938 0 
L 2938 2094 
Q 2938 2591 2744 2837 
Q 2550 3084 2163 3084 
Q 1697 3084 1428 2787 
Q 1159 2491 1159 1978 
L 1159 0 
L 581 0 
L 581 3500 
L 1159 3500 
L 1159 2956 
Q 1366 3272 1645 3428 
Q 1925 3584 2291 3584 
Q 2894 3584 3203 3211 
Q 3513 2838 3513 2113 
z
" transform="scale(0.015625)"/>
        <path id="DejaVuSans-76" d="M 191 3500 
L 800 3500 
L 1894 563 
L 2988 3500 
L 3597 3500 
L 2284 0 
L 1503 0 
L 191 3500 
z
" transform="scale(0.015625)"/>
       </defs>
       <use xlink:href="#DejaVuSans-62"/>
       <use xlink:href="#DejaVuSans-63" transform="translate(63.476562 0)"/>
       <use xlink:href="#DejaVuSans-73" transform="translate(118.457031 0)"/>
       <use xlink:href="#DejaVuSans-74" transform="translate(170.556641 0)"/>
       <use xlink:href="#DejaVuSans-5f" transform="translate(209.765625 0)"/>
       <use xlink:href="#DejaVuSans-73" transform="translate(259.765625 0)"/>
       <use xlink:href="#DejaVuSans-74" transform="translate(311.865234 0)"/>
       <use xlink:href="#DejaVuSans-72" transform="translate(351.074219 0)"/>
       <use xlink:href="#DejaVuSans-65" transform="translate(389.9375 0)"/>
       <use xlink:href="#DejaVuSans-73" transform="translate(451.460938 0)"/>
       <use xlink:href="#DejaVuSans-73" transform="translate(503.560547 0)"/>
       <use xlink:href="#DejaVuSans-5f" transform="translate(555.660156 0)"/>
       <use xlink:href="#DejaVuSans-75" transform="translate(605.660156 0)"/>
       <use xlink:href="#DejaVuSans-6e" transform="translate(669.039062 0)"/>
       <use xlink:href="#DejaVuSans-6f" transform="translate(732.417969 0)"/>
       <use xlink:href="#DejaVuSans-62" transform="translate(793.599609 0)"/>
       <use xlink:href="#DejaVuSans-73" transform="translate(857.076172 0)"/>
       <use xlink:href="#DejaVuSans-65" transform="translate(909.175781 0)"/>
       <use xlink:href="#DejaVuSans-72" transform="translate(970.699219 0)"/>
       <use xlink:href="#DejaVuSans-76" transform="translate(1011.8125 0)"/>
       <use xlink:href="#DejaVuSans-61" transform="translate(1070.992188 0)"/>
       <use xlink:href="#DejaVuSans-62" transform="translate(1132.271484 0)"/>
       <use xlink:href="#DejaVuSans-6c" transform="translate(1195.748047 0)"/>
       <use xlink:href="#DejaVuSans-65" transform="translate(1223.53125 0)"/>
      </g>
     </g>
    </g>
    <g id="xtick_5">
     <g id="line2d_5">
      <g>
       <use xlink:href="#m91ac478196" x="202.249413" y="150.144503" style="stroke: #000000; stroke-width: 0.8"/>
      </g>
     </g>
     <g id="text_5">
      <!-- bfsp_easy -->
      <g transform="translate(175.289519 204.102909) rotate(-60) scale(0.1 -0.1)">
       <defs>
        <path id="DejaVuSans-66" d="M 2375 4863 
L 2375 4384 
L 1825 4384 
Q 1516 4384 1395 4259 
Q 1275 4134 1275 3809 
L 1275 3500 
L 2222 3500 
L 2222 3053 
L 1275 3053 
L 1275 0 
L 697 0 
L 697 3053 
L 147 3053 
L 147 3500 
L 697 3500 
L 697 3744 
Q 697 4328 969 4595 
Q 1241 4863 1831 4863 
L 2375 4863 
z
" transform="scale(0.015625)"/>
       </defs>
       <use xlink:href="#DejaVuSans-62"/>
       <use xlink:href="#DejaVuSans-66" transform="translate(63.476562 0)"/>
       <use xlink:href="#DejaVuSans-73" transform="translate(98.681641 0)"/>
       <use xlink:href="#DejaVuSans-70" transform="translate(150.78125 0)"/>
       <use xlink:href="#DejaVuSans-5f" transform="translate(214.257812 0)"/>
       <use xlink:href="#DejaVuSans-65" transform="translate(264.257812 0)"/>
       <use xlink:href="#DejaVuSans-61" transform="translate(325.78125 0)"/>
       <use xlink:href="#DejaVuSans-73" transform="translate(387.060547 0)"/>
       <use xlink:href="#DejaVuSans-79" transform="translate(439.160156 0)"/>
      </g>
     </g>
    </g>
    <g id="xtick_6">
     <g id="line2d_6">
      <g>
       <use xlink:href="#m91ac478196" x="232.023867" y="150.144503" style="stroke: #000000; stroke-width: 0.8"/>
      </g>
     </g>
     <g id="text_6">
      <!-- bfsp_hard -->
      <g transform="translate(205.39366 203.531874) rotate(-60) scale(0.1 -0.1)">
       <use xlink:href="#DejaVuSans-62"/>
       <use xlink:href="#DejaVuSans-66" transform="translate(63.476562 0)"/>
       <use xlink:href="#DejaVuSans-73" transform="translate(98.681641 0)"/>
       <use xlink:href="#DejaVuSans-70" transform="translate(150.78125 0)"/>
       <use xlink:href="#DejaVuSans-5f" transform="translate(214.257812 0)"/>
       <use xlink:href="#DejaVuSans-68" transform="translate(264.257812 0)"/>
       <use xlink:href="#DejaVuSans-61" transform="translate(327.636719 0)"/>
       <use xlink:href="#DejaVuSans-72" transform="translate(388.916016 0)"/>
       <use xlink:href="#DejaVuSans-64" transform="translate(428.279297 0)"/>
      </g>
     </g>
    </g>
    <g id="xtick_7">
     <g id="line2d_7">
      <g>
       <use xlink:href="#m91ac478196" x="261.79832" y="150.144503" style="stroke: #000000; stroke-width: 0.8"/>
      </g>
     </g>
     <g id="text_7">
      <!-- bfsp_stress_impossible -->
      <g transform="translate(202.518113 260.083333) rotate(-60) scale(0.1 -0.1)">
       <use xlink:href="#DejaVuSans-62"/>
       <use xlink:href="#DejaVuSans-66" transform="translate(63.476562 0)"/>
       <use xlink:href="#DejaVuSans-73" transform="translate(98.681641 0)"/>
       <use xlink:href="#DejaVuSans-70" transform="translate(150.78125 0)"/>
       <use xlink:href="#DejaVuSans-5f" transform="translate(214.257812 0)"/>
       <use xlink:href="#DejaVuSans-73" transform="translate(264.257812 0)"/>
       <use xlink:href="#DejaVuSans-74" transform="translate(316.357422 0)"/>
       <use xlink:href="#DejaVuSans-72" transform="translate(355.566406 0)"/>
       <use xlink:href="#DejaVuSans-65" transform="translate(394.429688 0)"/>
       <use xlink:href="#DejaVuSans-73" transform="translate(455.953125 0)"/>
       <use xlink:href="#DejaVuSans-73" transform="translate(508.052734 0)"/>
       <use xlink:href="#DejaVuSans-5f" transform="translate(560.152344 0)"/>
       <use xlink:href="#DejaVuSans-69" transform="translate(610.152344 0)"/>
       <use xlink:href="#DejaVuSans-6d" transform="translate(637.935547 0)"/>
       <use xlink:href="#DejaVuSans-70" transform="translate(735.347656 0)"/>
       <use xlink:href="#DejaVuSans-6f" transform="translate(798.824219 0)"/>
       <use xlink:href="#DejaVuSans-73" transform="translate(860.005859 0)"/>
       <use xlink:href="#DejaVuSans-73" transform="translate(912.105469 0)"/>
       <use xlink:href="#DejaVuSans-69" transform="translate(964.205078 0)"/>
       <use xlink:href="#DejaVuSans-62" transform="translate(991.988281 0)"/>
       <use xlink:href="#DejaVuSans-6c" transform="translate(1055.464844 0)"/>
       <use xlink:href="#DejaVuSans-65" transform="translate(1083.248047 0)"/>
      </g>
     </g>
    </g>
    <g id="xtick_8">
     <g id="line2d_8">
      <g>
       <use xlink:href="#m91ac478196" x="291.572773" y="150.144503" style="stroke: #000000; stroke-width: 0.8"/>
      </g>
     </g>
     <g id="text_8">
      <!-- bfsp_stress_unobservable -->
      <g transform="translate(225.052723 272.62311) rotate(-60) scale(0.1 -0.1)">
       <use xlink:href="#DejaVuSans-62"/>
       <use xlink:href="#DejaVuSans-66" transform="translate(63.476562 0)"/>
       <use xlink:href="#DejaVuSans-73" transform="translate(98.681641 0)"/>
       <use xlink:href="#DejaVuSans-70" transform="translate(150.78125 0)"/>
       <use xlink:href="#DejaVuSans-5f" transform="translate(214.257812 0)"/>
       <use xlink:href="#DejaVuSans-73" transform="translate(264.257812 0)"/>
       <use xlink:href="#DejaVuSans-74" transform="translate(316.357422 0)"/>
       <use xlink:href="#DejaVuSans-72" transform="translate(355.566406 0)"/>
       <use xlink:href="#DejaVuSans-65" transform="translate(394.429688 0)"/>
       <use xlink:href="#DejaVuSans-73" transform="translate(455.953125 0)"/>
       <use xlink:href="#DejaVuSans-73" transform="translate(508.052734 0)"/>
       <use xlink:href="#DejaVuSans-5f" transform="translate(560.152344 0)"/>
       <use xlink:href="#DejaVuSans-75" transform="translate(610.152344 0)"/>
       <use xlink:href="#DejaVuSans-6e" transform="translate(673.53125 0)"/>
       <use xlink:href="#DejaVuSans-6f" transform="translate(736.910156 0)"/>
       <use xlink:href="#DejaVuSans-62" transform="translate(798.091797 0)"/>
       <use xlink:href="#DejaVuSans-73" transform="translate(861.568359 0)"/>
       <use xlink:href="#DejaVuSans-65" transform="translate(913.667969 0)"/>
       <use xlink:href="#DejaVuSans-72" transform="translate(975.191406 0)"/>
       <use xlink:href="#DejaVuSans-76" transform="translate(1016.304688 0)"/>
       <use xlink:href="#DejaVuSans-61" transform="translate(1075.484375 0)"/>
       <use xlink:href="#DejaVuSans-62" transform="translate(1136.763672 0)"/>
       <use xlink:href="#DejaVuSans-6c" transform="translate(1200.240234 0)"/>
       <use xlink:href="#DejaVuSans-65" transform="translate(1228.023438 0)"/>
      </g>
     </g>
    </g>
    <g id="xtick_9">
     <g id="line2d_9">
      <g>
       <use xlink:href="#m91ac478196" x="321.347227" y="150.144503" style="stroke: #000000; stroke-width: 0.8"/>
      </g>
     </g>
     <g id="text_9">
      <!-- bged_easy -->
      <g transform="translate(292.501395 207.369449) rotate(-60) scale(0.1 -0.1)">
       <defs>
        <path id="DejaVuSans-67" d="M 2906 1791 
Q 2906 2416 2648 2759 
Q 2391 3103 1925 3103 
Q 1463 3103 1205 2759 
Q 947 2416 947 1791 
Q 947 1169 1205 825 
Q 1463 481 1925 481 
Q 2391 481 2648 825 
Q 2906 1169 2906 1791 
z
M 3481 434 
Q 3481 -459 3084 -895 
Q 2688 -1331 1869 -1331 
Q 1566 -1331 1297 -1286 
Q 1028 -1241 775 -1147 
L 775 -588 
Q 1028 -725 1275 -790 
Q 1522 -856 1778 -856 
Q 2344 -856 2625 -561 
Q 2906 -266 2906 331 
L 2906 616 
Q 2728 306 2450 153 
Q 2172 0 1784 0 
Q 1141 0 747 490 
Q 353 981 353 1791 
Q 353 2603 747 3093 
Q 1141 3584 1784 3584 
Q 2172 3584 2450 3431 
Q 2728 3278 2906 2969 
L 2906 3500 
L 3481 3500 
L 3481 434 
z
" transform="scale(0.015625)"/>
       </defs>
       <use xlink:href="#DejaVuSans-62"/>
       <use xlink:href="#DejaVuSans-67" transform="translate(63.476562 0)"/>
       <use xlink:href="#DejaVuSans-65" transform="translate(126.953125 0)"/>
       <use xlink:href="#DejaVuSans-64" transform="translate(188.476562 0)"/>
       <use xlink:href="#DejaVuSans-5f" transform="translate(251.953125 0)"/>
       <use xlink:href="#DejaVuSans-65" transform="translate(301.953125 0)"/>
       <use xlink:href="#DejaVuSans-61" transform="translate(363.476562 0)"/>
       <use xlink:href="#DejaVuSans-73" transform="translate(424.755859 0)"/>
       <use xlink:href="#DejaVuSans-79" transform="translate(476.855469 0)"/>
      </g>
     </g>
    </g>
    <g id="xtick_10">
     <g id="line2d_10">
      <g>
       <use xlink:href="#m91ac478196" x="351.12168" y="150.144503" style="stroke: #000000; stroke-width: 0.8"/>
      </g>
     </g>
     <g id="text_10">
      <!-- bged_hard -->
      <g transform="translate(322.605536 206.798413) rotate(-60) scale(0.1 -0.1)">
       <use xlink:href="#DejaVuSans-62"/>
       <use xlink:href="#DejaVuSans-67" transform="translate(63.476562 0)"/>
       <use xlink:href="#DejaVuSans-65" transform="translate(126.953125 0)"/>
       <use xlink:href="#DejaVuSans-64" transform="translate(188.476562 0)"/>
       <use xlink:href="#DejaVuSans-5f" transform="translate(251.953125 0)"/>
       <use xlink:href="#DejaVuSans-68" transform="translate(301.953125 0)"/>
       <use xlink:href="#DejaVuSans-61" transform="translate(365.332031 0)"/>
       <use xlink:href="#DejaVuSans-72" transform="translate(426.611328 0)"/>
       <use xlink:href="#DejaVuSans-64" transform="translate(465.974609 0)"/>
      </g>
     </g>
    </g>
    <g id="xtick_11">
     <g id="line2d_11">
      <g>
       <use xlink:href="#m91ac478196" x="380.896133" y="150.144503" style="stroke: #000000; stroke-width: 0.8"/>
      </g>
     </g>
     <g id="text_11">
      <!-- bged_stress_impossible -->
      <g transform="translate(319.729989 263.349872) rotate(-60) scale(0.1 -0.1)">
       <use xlink:href="#DejaVuSans-62"/>
       <use xlink:href="#DejaVuSans-67" transform="translate(63.476562 0)"/>
       <use xlink:href="#DejaVuSans-65" transform="translate(126.953125 0)"/>
       <use xlink:href="#DejaVuSans-64" transform="translate(188.476562 0)"/>
       <use xlink:href="#DejaVuSans-5f" transform="translate(251.953125 0)"/>
       <use xlink:href="#DejaVuSans-73" transform="translate(301.953125 0)"/>
       <use xlink:href="#DejaVuSans-74" transform="translate(354.052734 0)"/>
       <use xlink:href="#DejaVuSans-72" transform="translate(393.261719 0)"/>
       <use xlink:href="#DejaVuSans-65" transform="translate(432.125 0)"/>
       <use xlink:href="#DejaVuSans-73" transform="translate(493.648438 0)"/>
       <use xlink:href="#DejaVuSans-73" transform="translate(545.748047 0)"/>
       <use xlink:href="#DejaVuSans-5f" transform="translate(597.847656 0)"/>
       <use xlink:href="#DejaVuSans-69" transform="translate(647.847656 0)"/>
       <use xlink:href="#DejaVuSans-6d" transform="translate(675.630859 0)"/>
       <use xlink:href="#DejaVuSans-70" transform="translate(773.042969 0)"/>
       <use xlink:href="#DejaVuSans-6f" transform="translate(836.519531 0)"/>
       <use xlink:href="#DejaVuSans-73" transform="translate(897.701172 0)"/>
       <use xlink:href="#DejaVuSans-73" transform="translate(949.800781 0)"/>
       <use xlink:href="#DejaVuSans-69" transform="translate(1001.900391 0)"/>
       <use xlink:href="#DejaVuSans-62" transform="translate(1029.683594 0)"/>
       <use xlink:href="#DejaVuSans-6c" transform="translate(1093.160156 0)"/>
       <use xlink:href="#DejaVuSans-65" transform="translate(1120.943359 0)"/>
      </g>
     </g>
    </g>
    <g id="xtick_12">
     <g id="line2d_12">
      <g>
       <use xlink:href="#m91ac478196" x="410.670587" y="150.144503" style="stroke: #000000; stroke-width: 0.8"/>
      </g>
     </g>
     <g id="text_12">
      <!-- bged_stress_unobservable -->
      <g transform="translate(342.264599 275.889649) rotate(-60) scale(0.1 -0.1)">
       <use xlink:href="#DejaVuSans-62"/>
       <use xlink:href="#DejaVuSans-67" transform="translate(63.476562 0)"/>
       <use xlink:href="#DejaVuSans-65" transform="translate(126.953125 0)"/>
       <use xlink:href="#DejaVuSans-64" transform="translate(188.476562 0)"/>
       <use xlink:href="#DejaVuSans-5f" transform="translate(251.953125 0)"/>
       <use xlink:href="#DejaVuSans-73" transform="translate(301.953125 0)"/>
       <use xlink:href="#DejaVuSans-74" transform="translate(354.052734 0)"/>
       <use xlink:href="#DejaVuSans-72" transform="translate(393.261719 0)"/>
       <use xlink:href="#DejaVuSans-65" transform="translate(432.125 0)"/>
       <use xlink:href="#DejaVuSans-73" transform="translate(493.648438 0)"/>
       <use xlink:href="#DejaVuSans-73" transform="translate(545.748047 0)"/>
       <use xlink:href="#DejaVuSans-5f" transform="translate(597.847656 0)"/>
       <use xlink:href="#DejaVuSans-75" transform="translate(647.847656 0)"/>
       <use xlink:href="#DejaVuSans-6e" transform="translate(711.226562 0)"/>
       <use xlink:href="#DejaVuSans-6f" transform="translate(774.605469 0)"/>
       <use xlink:href="#DejaVuSans-62" transform="translate(835.787109 0)"/>
       <use xlink:href="#DejaVuSans-73" transform="translate(899.263672 0)"/>
       <use xlink:href="#DejaVuSans-65" transform="translate(951.363281 0)"/>
       <use xlink:href="#DejaVuSans-72" transform="translate(1012.886719 0)"/>
       <use xlink:href="#DejaVuSans-76" transform="translate(1054 0)"/>
       <use xlink:href="#DejaVuSans-61" transform="translate(1113.179688 0)"/>
       <use xlink:href="#DejaVuSans-62" transform="translate(1174.458984 0)"/>
       <use xlink:href="#DejaVuSans-6c" transform="translate(1237.935547 0)"/>
       <use xlink:href="#DejaVuSans-65" transform="translate(1265.71875 0)"/>
      </g>
     </g>
    </g>
    <g id="xtick_13">
     <g id="line2d_13">
      <g>
       <use xlink:href="#m91ac478196" x="440.44504" y="150.144503" style="stroke: #000000; stroke-width: 0.8"/>
      </g>
     </g>
     <g id="text_13">
      <!-- bsp_easy -->
      <g transform="translate(415.245302 201.054229) rotate(-60) scale(0.1 -0.1)">
       <use xlink:href="#DejaVuSans-62"/>
       <use xlink:href="#DejaVuSans-73" transform="translate(63.476562 0)"/>
       <use xlink:href="#DejaVuSans-70" transform="translate(115.576172 0)"/>
       <use xlink:href="#DejaVuSans-5f" transform="translate(179.052734 0)"/>
       <use xlink:href="#DejaVuSans-65" transform="translate(229.052734 0)"/>
       <use xlink:href="#DejaVuSans-61" transform="translate(290.576172 0)"/>
       <use xlink:href="#DejaVuSans-73" transform="translate(351.855469 0)"/>
       <use xlink:href="#DejaVuSans-79" transform="translate(403.955078 0)"/>
      </g>
     </g>
    </g>
    <g id="xtick_14">
     <g id="line2d_14">
      <g>
       <use xlink:href="#m91ac478196" x="470.219494" y="150.144503" style="stroke: #000000; stroke-width: 0.8"/>
      </g>
     </g>
     <g id="text_14">
      <!-- bsp_hard -->
      <g transform="translate(445.349443 200.483194) rotate(-60) scale(0.1 -0.1)">
       <use xlink:href="#DejaVuSans-62"/>
       <use xlink:href="#DejaVuSans-73" transform="translate(63.476562 0)"/>
       <use xlink:href="#DejaVuSans-70" transform="translate(115.576172 0)"/>
       <use xlink:href="#DejaVuSans-5f" transform="translate(179.052734 0)"/>
       <use xlink:href="#DejaVuSans-68" transform="translate(229.052734 0)"/>
       <use xlink:href="#DejaVuSans-61" transform="translate(292.431641 0)"/>
       <use xlink:href="#DejaVuSans-72" transform="translate(353.710938 0)"/>
       <use xlink:href="#DejaVuSans-64" transform="translate(393.074219 0)"/>
      </g>
     </g>
    </g>
    <g id="xtick_15">
     <g id="line2d_15">
      <g>
       <use xlink:href="#m91ac478196" x="499.993947" y="150.144503" style="stroke: #000000; stroke-width: 0.8"/>
      </g>
     </g>
     <g id="text_15">
      <!-- bsp_stress_impossible -->
      <g transform="translate(442.473897 257.034653) rotate(-60) scale(0.1 -0.1)">
       <use xlink:href="#DejaVuSans-62"/>
       <use xlink:href="#DejaVuSans-73" transform="translate(63.476562 0)"/>
       <use xlink:href="#DejaVuSans-70" transform="translate(115.576172 0)"/>
       <use xlink:href="#DejaVuSans-5f" transform="translate(179.052734 0)"/>
       <use xlink:href="#DejaVuSans-73" transform="translate(229.052734 0)"/>
       <use xlink:href="#DejaVuSans-74" transform="translate(281.152344 0)"/>
       <use xlink:href="#DejaVuSans-72" transform="translate(320.361328 0)"/>
       <use xlink:href="#DejaVuSans-65" transform="translate(359.224609 0)"/>
       <use xlink:href="#DejaVuSans-73" transform="translate(420.748047 0)"/>
       <use xlink:href="#DejaVuSans-73" transform="translate(472.847656 0)"/>
       <use xlink:href="#DejaVuSans-5f" transform="translate(524.947266 0)"/>
       <use xlink:href="#DejaVuSans-69" transform="translate(574.947266 0)"/>
       <use xlink:href="#DejaVuSans-6d" transform="translate(602.730469 0)"/>
       <use xlink:href="#DejaVuSans-70" transform="translate(700.142578 0)"/>
       <use xlink:href="#DejaVuSans-6f" transform="translate(763.619141 0)"/>
       <use xlink:href="#DejaVuSans-73" transform="translate(824.800781 0)"/>
       <use xlink:href="#DejaVuSans-73" transform="translate(876.900391 0)"/>
       <use xlink:href="#DejaVuSans-69" transform="translate(929 0)"/>
       <use xlink:href="#DejaVuSans-62" transform="translate(956.783203 0)"/>
       <use xlink:href="#DejaVuSans-6c" transform="translate(1020.259766 0)"/>
       <use xlink:href="#DejaVuSans-65" transform="translate(1048.042969 0)"/>
      </g>
     </g>
    </g>
    <g id="xtick_16">
     <g id="line2d_16">
      <g>
       <use xlink:href="#m91ac478196" x="529.7684" y="150.144503" style="stroke: #000000; stroke-width: 0.8"/>
      </g>
     </g>
     <g id="text_16">
      <!-- bsp_stress_unobservable -->
      <g transform="translate(465.008506 269.57443) rotate(-60) scale(0.1 -0.1)">
       <use xlink:href="#DejaVuSans-62"/>
       <use xlink:href="#DejaVuSans-73" transform="translate(63.476562 0)"/>
       <use xlink:href="#DejaVuSans-70" transform="translate(115.576172 0)"/>
       <use xlink:href="#DejaVuSans-5f" transform="translate(179.052734 0)"/>
       <use xlink:href="#DejaVuSans-73" transform="translate(229.052734 0)"/>
       <use xlink:href="#DejaVuSans-74" transform="translate(281.152344 0)"/>
       <use xlink:href="#DejaVuSans-72" transform="translate(320.361328 0)"/>
       <use xlink:href="#DejaVuSans-65" transform="translate(359.224609 0)"/>
       <use xlink:href="#DejaVuSans-73" transform="translate(420.748047 0)"/>
       <use xlink:href="#DejaVuSans-73" transform="translate(472.847656 0)"/>
       <use xlink:href="#DejaVuSans-5f" transform="translate(524.947266 0)"/>
       <use xlink:href="#DejaVuSans-75" transform="translate(574.947266 0)"/>
       <use xlink:href="#DejaVuSans-6e" transform="translate(638.326172 0)"/>
       <use xlink:href="#DejaVuSans-6f" transform="translate(701.705078 0)"/>
       <use xlink:href="#DejaVuSans-62" transform="translate(762.886719 0)"/>
       <use xlink:href="#DejaVuSans-73" transform="translate(826.363281 0)"/>
       <use xlink:href="#DejaVuSans-65" transform="translate(878.462891 0)"/>
       <use xlink:href="#DejaVuSans-72" transform="translate(939.986328 0)"/>
       <use xlink:href="#DejaVuSans-76" transform="translate(981.099609 0)"/>
       <use xlink:href="#DejaVuSans-61" transform="translate(1040.279297 0)"/>
       <use xlink:href="#DejaVuSans-62" transform="translate(1101.558594 0)"/>
       <use xlink:href="#DejaVuSans-6c" transform="translate(1165.035156 0)"/>
       <use xlink:href="#DejaVuSans-65" transform="translate(1192.818359 0)"/>
      </g>
     </g>
    </g>
   </g>
   <g id="matplotlib.axis_2">
    <g id="ytick_1">
     <g id="line2d_17">
      <defs>
       <path id="m06e3a6c51e" d="M 0 0 
L -3.5 0 
" style="stroke: #000000; stroke-width: 0.8"/>
      </defs>
      <g>
       <use xlink:href="#m06e3a6c51e" x="47.72" y="150.144503" style="stroke: #000000; stroke-width: 0.8"/>
      </g>
     </g>
     <g id="text_17">
      <!-- 0.0 -->
      <g transform="translate(24.816875 153.943721) scale(0.1 -0.1)">
       <defs>
        <path id="DejaVuSans-30" d="M 2034 4250 
Q 1547 4250 1301 3770 
Q 1056 3291 1056 2328 
Q 1056 1369 1301 889 
Q 1547 409 2034 409 
Q 2525 409 2770 889 
Q 3016 1369 3016 2328 
Q 3016 3291 2770 3770 
Q 2525 4250 2034 4250 
z
M 2034 4750 
Q 2819 4750 3233 4129 
Q 3647 3509 3647 2328 
Q 3647 1150 3233 529 
Q 2819 -91 2034 -91 
Q 1250 -91 836 529 
Q 422 1150 422 2328 
Q 422 3509 836 4129 
Q 1250 4750 2034 4750 
z
" transform="scale(0.015625)"/>
        <path id="DejaVuSans-2e" d="M 684 794 
L 1344 794 
L 1344 0 
L 684 0 
L 684 794 
z
" transform="scale(0.015625)"/>
       </defs>
       <use xlink:href="#DejaVuSans-30"/>
       <use xlink:href="#DejaVuSans-2e" transform="translate(63.623047 0)"/>
       <use xlink:href="#DejaVuSans-30" transform="translate(95.410156 0)"/>
      </g>
     </g>
    </g>
    <g id="ytick_2">
     <g id="line2d_18">
      <g>
       <use xlink:href="#m06e3a6c51e" x="47.72" y="122.057531" style="stroke: #000000; stroke-width: 0.8"/>
      </g>
     </g>
     <g id="text_18">
      <!-- 0.2 -->
      <g transform="translate(24.816875 125.85675) scale(0.1 -0.1)">
       <defs>
        <path id="DejaVuSans-32" d="M 1228 531 
L 3431 531 
L 3431 0 
L 469 0 
L 469 531 
Q 828 903 1448 1529 
Q 2069 2156 2228 2338 
Q 2531 2678 2651 2914 
Q 2772 3150 2772 3378 
Q 2772 3750 2511 3984 
Q 2250 4219 1831 4219 
Q 1534 4219 1204 4116 
Q 875 4013 500 3803 
L 500 4441 
Q 881 4594 1212 4672 
Q 1544 4750 1819 4750 
Q 2544 4750 2975 4387 
Q 3406 4025 3406 3419 
Q 3406 3131 3298 2873 
Q 3191 2616 2906 2266 
Q 2828 2175 2409 1742 
Q 1991 1309 1228 531 
z
" transform="scale(0.015625)"/>
       </defs>
       <use xlink:href="#DejaVuSans-30"/>
       <use xlink:href="#DejaVuSans-2e" transform="translate(63.623047 0)"/>
       <use xlink:href="#DejaVuSans-32" transform="translate(95.410156 0)"/>
      </g>
     </g>
    </g>
    <g id="ytick_3">
     <g id="line2d_19">
      <g>
       <use xlink:href="#m06e3a6c51e" x="47.72" y="93.970559" style="stroke: #000000; stroke-width: 0.8"/>
      </g>
     </g>
     <g id="text_19">
      <!-- 0.4 -->
      <g transform="translate(24.816875 97.769778) scale(0.1 -0.1)">
       <defs>
        <path id="DejaVuSans-34" d="M 2419 4116 
L 825 1625 
L 2419 1625 
L 2419 4116 
z
M 2253 4666 
L 3047 4666 
L 3047 1625 
L 3713 1625 
L 3713 1100 
L 3047 1100 
L 3047 0 
L 2419 0 
L 2419 1100 
L 313 1100 
L 313 1709 
L 2253 4666 
z
" transform="scale(0.015625)"/>
       </defs>
       <use xlink:href="#DejaVuSans-30"/>
       <use xlink:href="#DejaVuSans-2e" transform="translate(63.623047 0)"/>
       <use xlink:href="#DejaVuSans-34" transform="translate(95.410156 0)"/>
      </g>
     </g>
    </g>
    <g id="ytick_4">
     <g id="line2d_20">
      <g>
       <use xlink:href="#m06e3a6c51e" x="47.72" y="65.883588" style="stroke: #000000; stroke-width: 0.8"/>
      </g>
     </g>
     <g id="text_20">
      <!-- 0.6 -->
      <g transform="translate(24.816875 69.682806) scale(0.1 -0.1)">
       <defs>
        <path id="DejaVuSans-36" d="M 2113 2584 
Q 1688 2584 1439 2293 
Q 1191 2003 1191 1497 
Q 1191 994 1439 701 
Q 1688 409 2113 409 
Q 2538 409 2786 701 
Q 3034 994 3034 1497 
Q 3034 2003 2786 2293 
Q 2538 2584 2113 2584 
z
M 3366 4563 
L 3366 3988 
Q 3128 4100 2886 4159 
Q 2644 4219 2406 4219 
Q 1781 4219 1451 3797 
Q 1122 3375 1075 2522 
Q 1259 2794 1537 2939 
Q 1816 3084 2150 3084 
Q 2853 3084 3261 2657 
Q 3669 2231 3669 1497 
Q 3669 778 3244 343 
Q 2819 -91 2113 -91 
Q 1303 -91 875 529 
Q 447 1150 447 2328 
Q 447 3434 972 4092 
Q 1497 4750 2381 4750 
Q 2619 4750 2861 4703 
Q 3103 4656 3366 4563 
z
" transform="scale(0.015625)"/>
       </defs>
       <use xlink:href="#DejaVuSans-30"/>
       <use xlink:href="#DejaVuSans-2e" transform="translate(63.623047 0)"/>
       <use xlink:href="#DejaVuSans-36" transform="translate(95.410156 0)"/>
      </g>
     </g>
    </g>
    <g id="ytick_5">
     <g id="line2d_21">
      <g>
       <use xlink:href="#m06e3a6c51e" x="47.72" y="37.796616" style="stroke: #000000; stroke-width: 0.8"/>
      </g>
     </g>
     <g id="text_21">
      <!-- 0.8 -->
      <g transform="translate(24.816875 41.595835) scale(0.1 -0.1)">
       <defs>
        <path id="DejaVuSans-38" d="M 2034 2216 
Q 1584 2216 1326 1975 
Q 1069 1734 1069 1313 
Q 1069 891 1326 650 
Q 1584 409 2034 409 
Q 2484 409 2743 651 
Q 3003 894 3003 1313 
Q 3003 1734 2745 1975 
Q 2488 2216 2034 2216 
z
M 1403 2484 
Q 997 2584 770 2862 
Q 544 3141 544 3541 
Q 544 4100 942 4425 
Q 1341 4750 2034 4750 
Q 2731 4750 3128 4425 
Q 3525 4100 3525 3541 
Q 3525 3141 3298 2862 
Q 3072 2584 2669 2484 
Q 3125 2378 3379 2068 
Q 3634 1759 3634 1313 
Q 3634 634 3220 271 
Q 2806 -91 2034 -91 
Q 1263 -91 848 271 
Q 434 634 434 1313 
Q 434 1759 690 2068 
Q 947 2378 1403 2484 
z
M 1172 3481 
Q 1172 3119 1398 2916 
Q 1625 2713 2034 2713 
Q 2441 2713 2670 2916 
Q 2900 3119 2900 3481 
Q 2900 3844 2670 4047 
Q 2441 4250 2034 4250 
Q 1625 4250 1398 4047 
Q 1172 3844 1172 3481 
z
" transform="scale(0.015625)"/>
       </defs>
       <use xlink:href="#DejaVuSans-30"/>
       <use xlink:href="#DejaVuSans-2e" transform="translate(63.623047 0)"/>
       <use xlink:href="#DejaVuSans-38" transform="translate(95.410156 0)"/>
      </g>
     </g>
    </g>
    <g id="text_22">
     <!-- Feasible fraction -->
     <g transform="translate(18.737187 129.682564) rotate(-90) scale(0.1 -0.1)">
      <defs>
       <path id="DejaVuSans-46" d="M 628 4666 
L 3309 4666 
L 3309 4134 
L 1259 4134 
L 1259 2759 
L 3109 2759 
L 3109 2228 
L 1259 2228 
L 1259 0 
L 628 0 
L 628 4666 
z
" transform="scale(0.015625)"/>
       <path id="DejaVuSans-20" transform="scale(0.015625)"/>
      </defs>
      <use xlink:href="#DejaVuSans-46"/>
      <use xlink:href="#DejaVuSans-65" transform="translate(52.019531 0)"/>
      <use xlink:href="#DejaVuSans-61" transform="translate(113.542969 0)"/>
      <use xlink:href="#DejaVuSans-73" transform="translate(174.822266 0)"/>
      <use xlink:href="#DejaVuSans-69" transform="translate(226.921875 0)"/>
      <use xlink:href="#DejaVuSans-62" transform="translate(254.705078 0)"/>
      <use xlink:href="#DejaVuSans-6c" transform="translate(318.181641 0)"/>
      <use xlink:href="#DejaVuSans-65" transform="translate(345.964844 0)"/>
      <use xlink:href="#DejaVuSans-20" transform="translate(407.488281 0)"/>
      <use xlink:href="#DejaVuSans-66" transform="translate(439.275391 0)"/>
      <use xlink:href="#DejaVuSans-72" transform="translate(474.480469 0)"/>
      <use xlink:href="#DejaVuSans-61" transform="translate(515.59375 0)"/>
      <use xlink:href="#DejaVuSans-63" transform="translate(576.873047 0)"/>
      <use xlink:href="#DejaVuSans-74" transform="translate(631.853516 0)"/>
      <use xlink:href="#DejaVuSans-69" transform="translate(671.0625 0)"/>
      <use xlink:href="#DejaVuSans-6f" transform="translate(698.845703 0)"/>
      <use xlink:href="#DejaVuSans-6e" transform="translate(760.027344 0)"/>
     </g>
    </g>
   </g>
   <g id="patch_19">
    <path d="M 47.72 150.144503 
L 47.72 26.88 
" style="fill: none; stroke: #000000; stroke-width: 0.8; stroke-linejoin: miter; stroke-linecap: square"/>
   </g>
   <g id="patch_20">
    <path d="M 565.2 150.144503 
L 565.2 26.88 
" style="fill: none; stroke: #000000; stroke-width: 0.8; stroke-linejoin: miter; stroke-linecap: square"/>
   </g>
   <g id="patch_21">
    <path d="M 47.72 150.144503 
L 565.2 150.144503 
" style="fill: none; stroke: #000000; stroke-width: 0.8; stroke-linejoin: miter; stroke-linecap: square"/>
   </g>
   <g id="patch_22">
    <path d="M 47.72 26.88 
L 565.2 26.88 
" style="fill: none; stroke: #000000; stroke-width: 0.8; stroke-linejoin: miter; stroke-linecap: square"/>
   </g>
   <g id="text_23">
    <!-- Feasible blind-policy fraction by instance -->
    <g transform="translate(183.97375 20.88) scale(0.12 -0.12)">
     <defs>
      <path id="DejaVuSans-2d" d="M 313 2009 
L 1997 2009 
L 1997 1497 
L 313 1497 
L 313 2009 
z
" transform="scale(0.015625)"/>
     </defs>
     <use xlink:href="#DejaVuSans-46"/>
     <use xlink:href="#DejaVuSans-65" transform="translate(52.019531 0)"/>
     <use xlink:href="#DejaVuSans-61" transform="translate(113.542969 0)"/>
     <use xlink:href="#DejaVuSans-73" transform="translate(174.822266 0)"/>
     <use xlink:href="#DejaVuSans-69" transform="translate(226.921875 0)"/>
     <use xlink:href="#DejaVuSans-62" transform="translate(254.705078 0)"/>
     <use xlink:href="#DejaVuSans-6c" transform="translate(318.181641 0)"/>
     <use xlink:href="#DejaVuSans-65" transform="translate(345.964844 0)"/>
     <use xlink:href="#DejaVuSans-20" transform="translate(407.488281 0)"/>
     <use xlink:href="#DejaVuSans-62" transform="translate(439.275391 0)"/>
     <use xlink:href="#DejaVuSans-6c" transform="translate(502.751953 0)"/>
     <use xlink:href="#DejaVuSans-69" transform="translate(530.535156 0)"/>
     <use xlink:href="#DejaVuSans-6e" transform="translate(558.318359 0)"/>
     <use xlink:href="#DejaVuSans-64" transform="translate(621.697266 0)"/>
     <use xlink:href="#DejaVuSans-2d" transform="translate(685.173828 0)"/>
     <use xlink:href="#DejaVuSans-70" transform="translate(721.257812 0)"/>
     <use xlink:href="#DejaVuSans-6f" transform="translate(784.734375 0)"/>
     <use xlink:href="#DejaVuSans-6c" transform="translate(845.916016 0)"/>
     <use xlink:href="#DejaVuSans-69" transform="translate(873.699219 0)"/>
     <use xlink:href="#DejaVuSans-63" transform="translate(901.482422 0)"/>
     <use xlink:href="#DejaVuSans-79" transform="translate(956.462891 0)"/>
     <use xlink:href="#DejaVuSans-20" transform="translate(1015.642578 0)"/>
     <use xlink:href="#DejaVuSans-66" transform="translate(1047.429688 0)"/>
     <use xlink:href="#DejaVuSans-72" transform="translate(1082.634766 0)"/>
     <use xlink:href="#DejaVuSans-61" transform="translate(1123.748047 0)"/>
     <use xlink:href="#DejaVuSans-63" transform="translate(1185.027344 0)"/>
     <use xlink:href="#DejaVuSans-74" transform="translate(1240.007812 0)"/>
     <use xlink:href="#DejaVuSans-69" transform="translate(1279.216797 0)"/>
     <use xlink:href="#DejaVuSans-6f" transform="translate(1307 0)"/>
     <use xlink:href="#DejaVuSans-6e" transform="translate(1368.181641 0)"/>
     <use xlink:href="#DejaVuSans-20" transform="translate(1431.560547 0)"/>
     <use xlink:href="#DejaVuSans-62" transform="translate(1463.347656 0)"/>
     <use xlink:href="#DejaVuSans-79" transform="translate(1526.824219 0)"/>
     <use xlink:href="#DejaVuSans-20" transform="translate(1586.003906 0)"/>
     <use xlink:href="#DejaVuSans-69" transform="translate(1617.791016 0)"/>
     <use xlink:href="#DejaVuSans-6e" transform="translate(1645.574219 0)"/>
     <use xlink:href="#DejaVuSans-73" transform="translate(1708.953125 0)"/>
     <use xlink:href="#DejaVuSans-74" transform="translate(1761.052734 0)"/>
     <use xlink:href="#DejaVuSans-61" transform="translate(1800.261719 0)"/>
     <use xlink:href="#DejaVuSans-6e" transform="translate(1861.541016 0)"/>
     <use xlink:href="#DejaVuSans-63" transform="translate(1924.919922 0)"/>
     <use xlink:href="#DejaVuSans-65" transform="translate(1979.900391 0)"/>
    </g>
   </g>
  </g>
 </g>
 <defs>
  <clipPath id="p000f02c1bb">
   <rect x="47.72" y="26.88" width="517.48" height="123.264503"/>
  </clipPath>
 </defs>
</svg>
