<?xml version="1.0" encoding="utf-8" standalone="no"?>
<!DOCTYPE svg PUBLIC "-//W3C//DTD SVG 1.1//EN"
  "http://www.w3.org/Graphics/SVG/1.1/DTD/svg11.dtd">
<svg xmlns:xlink="http://www.w3.org/1999/xlink" width="576pt" height="288pt" viewBox="0 0 576 288" xmlns="http://www.w3.org/2000/svg" version="1.1">
 <metadata>
  <rdf:RDF xmlns:dc="http://purl.org/dc/elements/1.1/" xmlns:cc="http://creativecommons.org/ns#" xmlns:rdf="http://www.w3.org/1999/02/22-rdf-syntax-ns#">
   <cc:Work>
    <dc:type rdf:resource="http://purl.org/dc/dcmitype/StillImage"/>
    <dc:date>2026-05-01T15:21:10.649598</dc:date>
    <dc:format>image/svg+xml</dc:format>
    <dc:creator>
     <cc:Agent>
      <dc:title>Matplotlib v3.10.9, https://matplotlib.org/</dc:title>
     </cc:Agent>
    </dc:creator>
   </cc:Work>
  </rdf:RDF>
 </metadata>
 <defs>
  <style type="text/css">*{stroke-linejoin: round; stroke-linecap: butt}</style>
 </defs>
 <g id="figure_1">
  <g id="patch_1">
   <path d="M 0 288 
L 576 288 
L 576 0 
L 0 0 
z
" style="fill: #ffffff"/>
  </g>
  <g id="axes_1">
   <g id="patch_2">
    <path d="M 57.17 218.57783 
L 565.2 218.57783 
L 565.2 26.88 
L 57.17 26.88 
z
" style="fill: #ffffff"/>
   </g>
   <g id="patch_3">
    <path d="M 80.262273 218.57783 
L 89.736026 218.57783 
L 89.736026 72.362315 
L 80.262273 72.362315 
z
" clip-path="url(#p8034f6bb3b)" style="fill: #1f77b4"/>
   </g>
   <g id="patch_4">
    <path d="M 139.473228 218.57783 
L 148.946981 218.57783 
L 148.946981 36.008468 
L 139.473228 36.008468 
z
" clip-path="url(#p8034f6bb3b)" style="fill: #1f77b4"/>
   </g>
   <g id="patch_5">
    <path d="M 198.684184 218.57783 
L 208.157937 218.57783 
L 208.157937 184.938657 
L 198.684184 184.938657 
z
" clip-path="url(#p8034f6bb3b)" style="fill: #1f77b4"/>
   </g>
   <g id="patch_6">
    <path d="M 257.89514 218.57783 
L 267.368893 218.57783 
L 267.368893 83.223459 
L 257.89514 83.223459 
z
" clip-path="url(#p8034f6bb3b)" style="fill: #1f77b4"/>
   </g>
   <g id="patch_7">
    <path d="M 317.106096 218.57783 
L 326.579848 218.57783 
L 326.579848 187.276911 
L 317.106096 187.276911 
z
" clip-path="url(#p8034f6bb3b)" style="fill: #1f77b4"/>
   </g>
   <g id="patch_8">
    <path d="M 376.317051 218.57783 
L 385.790804 218.57783 
L 385.790804 99.648997 
L 376.317051 99.648997 
z
" clip-path="url(#p8034f6bb3b)" style="fill: #1f77b4"/>
   </g>
   <g id="patch_9">
    <path d="M 435.528007 218.57783 
L 445.00176 218.57783 
L 445.00176 118.314823 
L 435.528007 118.314823 
z
" clip-path="url(#p8034f6bb3b)" style="fill: #1f77b4"/>
   </g>
   <g id="patch_10">
    <path d="M 494.738963 218.57783 
L 504.212716 218.57783 
L 504.212716 139.571826 
L 494.738963 139.571826 
z
" clip-path="url(#p8034f6bb3b)" style="fill: #1f77b4"/>
   </g>
   <g id="patch_11">
    <path d="M 89.736026 218.57783 
L 99.209779 218.57783 
L 99.209779 82.141866 
L 89.736026 82.141866 
z
" clip-path="url(#p8034f6bb3b)" style="fill: #ff7f0e"/>
   </g>
   <g id="patch_12">
    <path d="M 148.946981 218.57783 
L 158.420734 218.57783 
L 158.420734 36.008468 
L 148.946981 36.008468 
z
" clip-path="url(#p8034f6bb3b)" style="fill: #ff7f0e"/>
   </g>
   <g id="patch_13">
    <path d="M 208.157937 218.57783 
L 217.63169 218.57783 
L 217.63169 184.938657 
L 208.157937 184.938657 
z
" clip-path="url(#p8034f6bb3b)" style="fill: #ff7f0e"/>
   </g>
   <g id="patch_14">
    <path d="M 267.368893 218.57783 
L 276.842646 218.57783 
L 276.842646 83.223459 
L 267.368893 83.223459 
z
" clip-path="url(#p8034f6bb3b)" style="fill: #ff7f0e"/>
   </g>
   <g id="patch_15">
    <path d="M 326.579848 218.57783 
L 336.053601 218.57783 
L 336.053601 187.276911 
L 326.579848 187.276911 
z
" clip-path="url(#p8034f6bb3b)" style="fill: #ff7f0e"/>
   </g>
   <g id="patch_16">
    <path d="M 385.790804 218.57783 
L 395.264557 218.57783 
L 395.264557 99.648997 
L 385.790804 99.648997 
z
" clip-path="url(#p8034f6bb3b)" style="fill: #ff7f0e"/>
   </g>
   <g id="patch_17">
    <path d="M 445.00176 218.57783 
L 454.475513 218.57783 
L 454.475513 178.355679 
L 445.00176 178.355679 
z
" clip-path="url(#p8034f6bb3b)" style="fill: #ff7f0e"/>
   </g>
   <g id="patch_18">
    <path d="M 504.212716 218.57783 
L 513.686469 218.57783 
L 513.686469 139.571826 
L 504.212716 139.571826 
z
" clip-path="url(#p8034f6bb3b)" style="fill: #ff7f0e"/>
   </g>
   <g id="patch_19">
    <path d="M 99.209779 218.57783 
L 108.683531 218.57783 
L 108.683531 72.362315 
L 99.209779 72.362315 
z
" clip-path="url(#p8034f6bb3b)" style="fill: #2ca02c"/>
   </g>
   <g id="patch_20">
    <path d="M 158.420734 218.57783 
L 167.894487 218.57783 
L 167.894487 36.008468 
L 158.420734 36.008468 
z
" clip-path="url(#p8034f6bb3b)" style="fill: #2ca02c"/>
   </g>
   <g id="patch_21">
    <path d="M 217.63169 218.57783 
L 227.105443 218.57783 
L 227.105443 184.938657 
L 217.63169 184.938657 
z
" clip-path="url(#p8034f6bb3b)" style="fill: #2ca02c"/>
   </g>
   <g id="patch_22">
    <path d="M 276.842646 218.57783 
L 286.316399 218.57783 
L 286.316399 83.223459 
L 276.842646 83.223459 
z
" clip-path="url(#p8034f6bb3b)" style="fill: #2ca02c"/>
   </g>
   <g id="patch_23">
    <path d="M 336.053601 218.57783 
L 345.527354 218.57783 
L 345.527354 187.276911 
L 336.053601 187.276911 
z
" clip-path="url(#p8034f6bb3b)" style="fill: #2ca02c"/>
   </g>
   <g id="patch_24">
    <path d="M 395.264557 218.57783 
L 404.73831 218.57783 
L 404.73831 99.648997 
L 395.264557 99.648997 
z
" clip-path="url(#p8034f6bb3b)" style="fill: #2ca02c"/>
   </g>
   <g id="patch_25">
    <path d="M 454.475513 218.57783 
L 463.949266 218.57783 
L 463.949266 118.314823 
L 454.475513 118.314823 
z
" clip-path="url(#p8034f6bb3b)" style="fill: #2ca02c"/>
   </g>
   <g id="patch_26">
    <path d="M 513.686469 218.57783 
L 523.160221 218.57783 
L 523.160221 139.571826 
L 513.686469 139.571826 
z
" clip-path="url(#p8034f6bb3b)" style="fill: #2ca02c"/>
   </g>
   <g id="patch_27">
    <path d="M 108.683531 218.57783 
L 118.157284 218.57783 
L 118.157284 88.625196 
L 108.683531 88.625196 
z
" clip-path="url(#p8034f6bb3b)" style="fill: #d62728"/>
   </g>
   <g id="patch_28">
    <path d="M 167.894487 218.57783 
L 177.36824 218.57783 
L 177.36824 36.008468 
L 167.894487 36.008468 
z
" clip-path="url(#p8034f6bb3b)" style="fill: #d62728"/>
   </g>
   <g id="patch_29">
    <path d="M 227.105443 218.57783 
L 236.579196 218.57783 
L 236.579196 184.938657 
L 227.105443 184.938657 
z
" clip-path="url(#p8034f6bb3b)" style="fill: #d62728"/>
   </g>
   <g id="patch_30">
    <path d="M 286.316399 218.57783 
L 295.790152 218.57783 
L 295.790152 83.225081 
L 286.316399 83.225081 
z
" clip-path="url(#p8034f6bb3b)" style="fill: #d62728"/>
   </g>
   <g id="patch_31">
    <path d="M 345.527354 218.57783 
L 355.001107 218.57783 
L 355.001107 187.276911 
L 345.527354 187.276911 
z
" clip-path="url(#p8034f6bb3b)" style="fill: #d62728"/>
   </g>
   <g id="patch_32">
    <path d="M 404.73831 218.57783 
L 414.212063 218.57783 
L 414.212063 99.648997 
L 404.73831 99.648997 
z
" clip-path="url(#p8034f6bb3b)" style="fill: #d62728"/>
   </g>
   <g id="patch_33">
    <path d="M 463.949266 218.57783 
L 473.423019 218.57783 
L 473.423019 178.355679 
L 463.949266 178.355679 
z
" clip-path="url(#p8034f6bb3b)" style="fill: #d62728"/>
   </g>
   <g id="patch_34">
    <path d="M 523.160221 218.57783 
L 532.633974 218.57783 
L 532.633974 139.571826 
L 523.160221 139.571826 
z
" clip-path="url(#p8034f6bb3b)" style="fill: #d62728"/>
   </g>
   <g id="patch_35">
    <path d="M 118.157284 218.57783 
L 127.631037 218.57783 
L 127.631037 82.141866 
L 118.157284 82.141866 
z
" clip-path="url(#p8034f6bb3b)" style="fill: #9467bd"/>
   </g>
   <g id="patch_36">
    <path d="M 177.36824 218.57783 
L 186.841993 218.57783 
L 186.841993 36.008468 
L 177.36824 36.008468 
z
" clip-path="url(#p8034f6bb3b)" style="fill: #9467bd"/>
   </g>
   <g id="patch_37">
    <path d="M 236.579196 218.57783 
L 246.052949 218.57783 
L 246.052949 184.938657 
L 236.579196 184.938657 
z
" clip-path="url(#p8034f6bb3b)" style="fill: #9467bd"/>
   </g>
   <g id="patch_38">
    <path d="M 295.790152 218.57783 
L 305.263904 218.57783 
L 305.263904 83.225081 
L 295.790152 83.225081 
z
" clip-path="url(#p8034f6bb3b)" style="fill: #9467bd"/>
   </g>
   <g id="patch_39">
    <path d="M 355.001107 218.57783 
L 364.47486 218.57783 
L 364.47486 186.745376 
L 355.001107 186.745376 
z
" clip-path="url(#p8034f6bb3b)" style="fill: #9467bd"/>
   </g>
   <g id="patch_40">
    <path d="M 414.212063 218.57783 
L 423.685816 218.57783 
L 423.685816 99.648997 
L 414.212063 99.648997 
z
" clip-path="url(#p8034f6bb3b)" style="fill: #9467bd"/>
   </g>
   <g id="patch_41">
    <path d="M 473.423019 218.57783 
L 482.896772 218.57783 
L 482.896772 178.355679 
L 473.423019 178.355679 
z
" clip-path="url(#p8034f6bb3b)" style="fill: #9467bd"/>
   </g>
   <g id="patch_42">
    <path d="M 532.633974 218.57783 
L 542.107727 218.57783 
L 542.107727 139.571826 
L 532.633974 139.571826 
z
" clip-path="url(#p8034f6bb3b)" style="fill: #9467bd"/>
   </g>
   <g id="matplotlib.axis_1">
    <g id="xtick_1">
     <g id="line2d_1">
      <defs>
       <path id="mb680326e9d" d="M 0 0 
L 0 3.5 
" style="stroke: #000000; stroke-width: 0.8"/>
      </defs>
      <g>
       <use xlink:href="#mb680326e9d" x="103.946655" y="218.57783" style="stroke: #000000; stroke-width: 0.8"/>
      </g>
     </g>
     <g id="text_1">
      <!-- bcst_easy -->
      <g transform="translate(77.211761 272.146525) rotate(-60) scale(0.1 -0.1)">
       <defs>
        <path id="DejaVuSans-62" d="M 3116 1747 
Q 3116 2381 2855 2742 
Q 2594 3103 2138 3103 
Q 1681 3103 1420 2742 
Q 1159 2381 1159 1747 
Q 1159 1113 1420 752 
Q 1681 391 2138 391 
Q 2594 391 2855 752 
Q 3116 1113 3116 1747 
z
M 1159 2969 
Q 1341 3281 1617 3432 
Q 1894 3584 2278 3584 
Q 2916 3584 3314 3078 
Q 3713 2572 3713 1747 
Q 3713 922 3314 415 
Q 2916 -91 2278 -91 
Q 1894 -91 1617 61 
Q 1341 213 1159 525 
L 1159 0 
L 581 0 
L 581 4863 
L 1159 4863 
L 1159 2969 
z
" transform="scale(0.015625)"/>
        <path id="DejaVuSans-63" d="M 3122 3366 
L 3122 2828 
Q 2878 2963 2633 3030 
Q 2388 3097 2138 3097 
Q 1578 3097 1268 2742 
Q 959 2388 959 1747 
Q 959 1106 1268 751 
Q 1578 397 2138 397 
Q 2388 397 2633 464 
Q 2878 531 3122 666 
L 3122 134 
Q 2881 22 2623 -34 
Q 2366 -91 2075 -91 
Q 1284 -91 818 406 
Q 353 903 353 1747 
Q 353 2603 823 3093 
Q 1294 3584 2113 3584 
Q 2378 3584 2631 3529 
Q 2884 3475 3122 3366 
z
" transform="scale(0.015625)"/>
        <path id="DejaVuSans-73" d="M 2834 3397 
L 2834 2853 
Q 2591 2978 2328 3040 
Q 2066 3103 1784 3103 
Q 1356 3103 1142 2972 
Q 928 2841 928 2578 
Q 928 2378 1081 2264 
Q 1234 2150 1697 2047 
L 1894 2003 
Q 2506 1872 2764 1633 
Q 3022 1394 3022 966 
Q 3022 478 2636 193 
Q 2250 -91 1575 -91 
Q 1294 -91 989 -36 
Q 684 19 347 128 
L 347 722 
Q 666 556 975 473 
Q 1284 391 1588 391 
Q 1994 391 2212 530 
Q 2431 669 2431 922 
Q 2431 1156 2273 1281 
Q 2116 1406 1581 1522 
L 1381 1569 
Q 847 1681 609 1914 
Q 372 2147 372 2553 
Q 372 3047 722 3315 
Q 1072 3584 1716 3584 
Q 2034 3584 2315 3537 
Q 2597 3491 2834 3397 
z
" transform="scale(0.015625)"/>
        <path id="DejaVuSans-74" d="M 1172 4494 
L 1172 3500 
L 2356 3500 
L 2356 3053 
L 1172 3053 
L 1172 1153 
Q 1172 725 1289 603 
Q 1406 481 1766 481 
L 2356 481 
L 2356 0 
L 1766 0 
Q 1100 0 847 248 
Q 594 497 594 1153 
L 594 3053 
L 172 3053 
L 172 3500 
L 594 3500 
L 594 4494 
L 1172 4494 
z
" transform="scale(0.015625)"/>
        <path id="DejaVuSans-5f" d="M 3263 -1063 
L 3263 -1509 
L -63 -1509 
L -63 -1063 
L 3263 -1063 
z
" transform="scale(0.015625)"/>
        <path id="DejaVuSans-65" d="M 3597 1894 
L 3597 1613 
L 953 1613 
Q 991 1019 1311 708 
Q 1631 397 2203 397 
Q 2534 397 2845 478 
Q 3156 559 3463 722 
L 3463 178 
Q 3153 47 2828 -22 
Q 2503 -91 2169 -91 
Q 1331 -91 842 396 
Q 353 884 353 1716 
Q 353 2575 817 3079 
Q 1281 3584 2069 3584 
Q 2775 3584 3186 3129 
Q 3597 2675 3597 1894 
z
M 3022 2063 
Q 3016 2534 2758 2815 
Q 2500 3097 2075 3097 
Q 1594 3097 1305 2825 
Q 1016 2553 972 2059 
L 3022 2063 
z
" transform="scale(0.015625)"/>
        <path id="DejaVuSans-61" d="M 2194 1759 
Q 1497 1759 1228 1600 
Q 959 1441 959 1056 
Q 959 750 1161 570 
Q 1363 391 1709 391 
Q 2188 391 2477 730 
Q 2766 1069 2766 1631 
L 2766 1759 
L 2194 1759 
z
M 3341 1997 
L 3341 0 
L 2766 0 
L 2766 531 
Q 2569 213 2275 61 
Q 1981 -91 1556 -91 
Q 1019 -91 701 211 
Q 384 513 384 1019 
Q 384 1609 779 1909 
Q 1175 2209 1959 2209 
L 2766 2209 
L 2766 2266 
Q 2766 2663 2505 2880 
Q 2244 3097 1772 3097 
Q 1472 3097 1187 3025 
Q 903 2953 641 2809 
L 641 3341 
Q 956 3463 1253 3523 
Q 1550 3584 1831 3584 
Q 2591 3584 2966 3190 
Q 3341 2797 3341 1997 
z
" transform="scale(0.015625)"/>
        <path id="DejaVuSans-79" d="M 2059 -325 
Q 1816 -950 1584 -1140 
Q 1353 -1331 966 -1331 
L 506 -1331 
L 506 -850 
L 844 -850 
Q 1081 -850 1212 -737 
Q 1344 -625 1503 -206 
L 1606 56 
L 191 3500 
L 800 3500 
L 1894 763 
L 2988 3500 
L 3597 3500 
L 2059 -325 
z
" transform="scale(0.015625)"/>
       </defs>
       <use xlink:href="#DejaVuSans-62"/>
       <use xlink:href="#DejaVuSans-63" transform="translate(63.476562 0)"/>
       <use xlink:href="#DejaVuSans-73" transform="translate(118.457031 0)"/>
       <use xlink:href="#DejaVuSans-74" transform="translate(170.556641 0)"/>
       <use xlink:href="#DejaVuSans-5f" transform="translate(209.765625 0)"/>
       <use xlink:href="#DejaVuSans-65" transform="translate(259.765625 0)"/>
       <use xlink:href="#DejaVuSans-61" transform="translate(321.289062 0)"/>
       <use xlink:href="#DejaVuSans-73" transform="translate(382.568359 0)"/>
       <use xlink:href="#DejaVuSans-79" transform="translate(434.667969 0)"/>
      </g>
     </g>
    </g>
    <g id="xtick_2">
     <g id="line2d_2">
      <g>
       <use xlink:href="#mb680326e9d" x="163.157611" y="218.57783" style="stroke: #000000; stroke-width: 0.8"/>
      </g>
     </g>
     <g id="text_2">
      <!-- bcst_hard -->
      <g transform="translate(136.752404 271.57549) rotate(-60) scale(0.1 -0.1)">
       <defs>
        <path id="DejaVuSans-68" d="M 3513 2113 
L 3513 0 
L 2938 0 
L 2938 2094 
Q 2938 2591 2744 2837 
Q 2550 3084 2163 3084 
Q 1697 3084 1428 2787 
Q 1159 2491 1159 1978 
L 1159 0 
L 581 0 
L 581 4863 
L 1159 4863 
L 1159 2956 
Q 1366 3272 1645 3428 
Q 1925 3584 2291 3584 
Q 2894 3584 3203 3211 
Q 3513 2838 3513 2113 
z
" transform="scale(0.015625)"/>
        <path id="DejaVuSans-72" d="M 2631 2963 
Q 2534 3019 2420 3045 
Q 2306 3072 2169 3072 
Q 1681 3072 1420 2755 
Q 1159 2438 1159 1844 
L 1159 0 
L 581 0 
L 581 3500 
L 1159 3500 
L 1159 2956 
Q 1341 3275 1631 3429 
Q 1922 3584 2338 3584 
Q 2397 3584 2469 3576 
Q 2541 3569 2628 3553 
L 2631 2963 
z
" transform="scale(0.015625)"/>
        <path id="DejaVuSans-64" d="M 2906 2969 
L 2906 4863 
L 3481 4863 
L 3481 0 
L 2906 0 
L 2906 525 
Q 2725 213 2448 61 
Q 2172 -91 1784 -91 
Q 1150 -91 751 415 
Q 353 922 353 1747 
Q 353 2572 751 3078 
Q 1150 3584 1784 3584 
Q 2172 3584 2448 3432 
Q 2725 3281 2906 2969 
z
M 947 1747 
Q 947 1113 1208 752 
Q 1469 391 1925 391 
Q 2381 391 2643 752 
Q 2906 1113 2906 1747 
Q 2906 2381 2643 2742 
Q 2381 3103 1925 3103 
Q 1469 3103 1208 2742 
Q 947 2381 947 1747 
z
" transform="scale(0.015625)"/>
       </defs>
       <use xlink:href="#DejaVuSans-62"/>
       <use xlink:href="#DejaVuSans-63" transform="translate(63.476562 0)"/>
       <use xlink:href="#DejaVuSans-73" transform="translate(118.457031 0)"/>
       <use xlink:href="#DejaVuSans-74" transform="translate(170.556641 0)"/>
       <use xlink:href="#DejaVuSans-5f" transform="translate(209.765625 0)"/>
       <use xlink:href="#DejaVuSans-68" transform="translate(259.765625 0)"/>
       <use xlink:href="#DejaVuSans-61" transform="translate(323.144531 0)"/>
       <use xlink:href="#DejaVuSans-72" transform="translate(384.423828 0)"/>
       <use xlink:href="#DejaVuSans-64" transform="translate(423.787109 0)"/>
      </g>
     </g>
    </g>
    <g id="xtick_3">
     <g id="line2d_3">
      <g>
       <use xlink:href="#mb680326e9d" x="222.368566" y="218.57783" style="stroke: #000000; stroke-width: 0.8"/>
      </g>
     </g>
     <g id="text_3">
      <!-- bfsp_easy -->
      <g transform="translate(195.408672 272.536237) rotate(-60) scale(0.1 -0.1)">
       <defs>
        <path id="DejaVuSans-66" d="M 2375 4863 
L 2375 4384 
L 1825 4384 
Q 1516 4384 1395 4259 
Q 1275 4134 1275 3809 
L 1275 3500 
L 2222 3500 
L 2222 3053 
L 1275 3053 
L 1275 0 
L 697 0 
L 697 3053 
L 147 3053 
L 147 3500 
L 697 3500 
L 697 3744 
Q 697 4328 969 4595 
Q 1241 4863 1831 4863 
L 2375 4863 
z
" transform="scale(0.015625)"/>
        <path id="DejaVuSans-70" d="M 1159 525 
L 1159 -1331 
L 581 -1331 
L 581 3500 
L 1159 3500 
L 1159 2969 
Q 1341 3281 1617 3432 
Q 1894 3584 2278 3584 
Q 2916 3584 3314 3078 
Q 3713 2572 3713 1747 
Q 3713 922 3314 415 
Q 2916 -91 2278 -91 
Q 1894 -91 1617 61 
Q 1341 213 1159 525 
z
M 3116 1747 
Q 3116 2381 2855 2742 
Q 2594 3103 2138 3103 
Q 1681 3103 1420 2742 
Q 1159 2381 1159 1747 
Q 1159 1113 1420 752 
Q 1681 391 2138 391 
Q 2594 391 2855 752 
Q 3116 1113 3116 1747 
z
" transform="scale(0.015625)"/>
       </defs>
       <use xlink:href="#DejaVuSans-62"/>
       <use xlink:href="#DejaVuSans-66" transform="translate(63.476562 0)"/>
       <use xlink:href="#DejaVuSans-73" transform="translate(98.681641 0)"/>
       <use xlink:href="#DejaVuSans-70" transform="translate(150.78125 0)"/>
       <use xlink:href="#DejaVuSans-5f" transform="translate(214.257812 0)"/>
       <use xlink:href="#DejaVuSans-65" transform="translate(264.257812 0)"/>
       <use xlink:href="#DejaVuSans-61" transform="translate(325.78125 0)"/>
       <use xlink:href="#DejaVuSans-73" transform="translate(387.060547 0)"/>
       <use xlink:href="#DejaVuSans-79" transform="translate(439.160156 0)"/>
      </g>
     </g>
    </g>
    <g id="xtick_4">
     <g id="line2d_4">
      <g>
       <use xlink:href="#mb680326e9d" x="281.579522" y="218.57783" style="stroke: #000000; stroke-width: 0.8"/>
      </g>
     </g>
     <g id="text_4">
      <!-- bfsp_hard -->
      <g transform="translate(254.949315 271.965201) rotate(-60) scale(0.1 -0.1)">
       <use xlink:href="#DejaVuSans-62"/>
       <use xlink:href="#DejaVuSans-66" transform="translate(63.476562 0)"/>
       <use xlink:href="#DejaVuSans-73" transform="translate(98.681641 0)"/>
       <use xlink:href="#DejaVuSans-70" transform="translate(150.78125 0)"/>
       <use xlink:href="#DejaVuSans-5f" transform="translate(214.257812 0)"/>
       <use xlink:href="#DejaVuSans-68" transform="translate(264.257812 0)"/>
       <use xlink:href="#DejaVuSans-61" transform="translate(327.636719 0)"/>
       <use xlink:href="#DejaVuSans-72" transform="translate(388.916016 0)"/>
       <use xlink:href="#DejaVuSans-64" transform="translate(428.279297 0)"/>
      </g>
     </g>
    </g>
    <g id="xtick_5">
     <g id="line2d_5">
      <g>
       <use xlink:href="#mb680326e9d" x="340.790478" y="218.57783" style="stroke: #000000; stroke-width: 0.8"/>
      </g>
     </g>
     <g id="text_5">
      <!-- bged_easy -->
      <g transform="translate(311.944646 275.802776) rotate(-60) scale(0.1 -0.1)">
       <defs>
        <path id="DejaVuSans-67" d="M 2906 1791 
Q 2906 2416 2648 2759 
Q 2391 3103 1925 3103 
Q 1463 3103 1205 2759 
Q 947 2416 947 1791 
Q 947 1169 1205 825 
Q 1463 481 1925 481 
Q 2391 481 2648 825 
Q 2906 1169 2906 1791 
z
M 3481 434 
Q 3481 -459 3084 -895 
Q 2688 -1331 1869 -1331 
Q 1566 -1331 1297 -1286 
Q 1028 -1241 775 -1147 
L 775 -588 
Q 1028 -725 1275 -790 
Q 1522 -856 1778 -856 
Q 2344 -856 2625 -561 
Q 2906 -266 2906 331 
L 2906 616 
Q 2728 306 2450 153 
Q 2172 0 1784 0 
Q 1141 0 747 490 
Q 353 981 353 1791 
Q 353 2603 747 3093 
Q 1141 3584 1784 3584 
Q 2172 3584 2450 3431 
Q 2728 3278 2906 2969 
L 2906 3500 
L 3481 3500 
L 3481 434 
z
" transform="scale(0.015625)"/>
       </defs>
       <use xlink:href="#DejaVuSans-62"/>
       <use xlink:href="#DejaVuSans-67" transform="translate(63.476562 0)"/>
       <use xlink:href="#DejaVuSans-65" transform="translate(126.953125 0)"/>
       <use xlink:href="#DejaVuSans-64" transform="translate(188.476562 0)"/>
       <use xlink:href="#DejaVuSans-5f" transform="translate(251.953125 0)"/>
       <use xlink:href="#DejaVuSans-65" transform="translate(301.953125 0)"/>
       <use xlink:href="#DejaVuSans-61" transform="translate(363.476562 0)"/>
       <use xlink:href="#DejaVuSans-73" transform="translate(424.755859 0)"/>
       <use xlink:href="#DejaVuSans-79" transform="translate(476.855469 0)"/>
      </g>
     </g>
    </g>
    <g id="xtick_6">
     <g id="line2d_6">
      <g>
       <use xlink:href="#mb680326e9d" x="400.001434" y="218.57783" style="stroke: #000000; stroke-width: 0.8"/>
      </g>
     </g>
     <g id="text_6">
      <!-- bged_hard -->
      <g transform="translate(371.485289 275.231741) rotate(-60) scale(0.1 -0.1)">
       <use xlink:href="#DejaVuSans-62"/>
       <use xlink:href="#DejaVuSans-67" transform="translate(63.476562 0)"/>
       <use xlink:href="#DejaVuSans-65" transform="translate(126.953125 0)"/>
       <use xlink:href="#DejaVuSans-64" transform="translate(188.476562 0)"/>
       <use xlink:href="#DejaVuSans-5f" transform="translate(251.953125 0)"/>
       <use xlink:href="#DejaVuSans-68" transform="translate(301.953125 0)"/>
       <use xlink:href="#DejaVuSans-61" transform="translate(365.332031 0)"/>
       <use xlink:href="#DejaVuSans-72" transform="translate(426.611328 0)"/>
       <use xlink:href="#DejaVuSans-64" transform="translate(465.974609 0)"/>
      </g>
     </g>
    </g>
    <g id="xtick_7">
     <g id="line2d_7">
      <g>
       <use xlink:href="#mb680326e9d" x="459.212389" y="218.57783" style="stroke: #000000; stroke-width: 0.8"/>
      </g>
     </g>
     <g id="text_7">
      <!-- bsp_easy -->
      <g transform="translate(434.012651 269.487557) rotate(-60) scale(0.1 -0.1)">
       <use xlink:href="#DejaVuSans-62"/>
       <use xlink:href="#DejaVuSans-73" transform="translate(63.476562 0)"/>
       <use xlink:href="#DejaVuSans-70" transform="translate(115.576172 0)"/>
       <use xlink:href="#DejaVuSans-5f" transform="translate(179.052734 0)"/>
       <use xlink:href="#DejaVuSans-65" transform="translate(229.052734 0)"/>
       <use xlink:href="#DejaVuSans-61" transform="translate(290.576172 0)"/>
       <use xlink:href="#DejaVuSans-73" transform="translate(351.855469 0)"/>
       <use xlink:href="#DejaVuSans-79" transform="translate(403.955078 0)"/>
      </g>
     </g>
    </g>
    <g id="xtick_8">
     <g id="line2d_8">
      <g>
       <use xlink:href="#mb680326e9d" x="518.423345" y="218.57783" style="stroke: #000000; stroke-width: 0.8"/>
      </g>
     </g>
     <g id="text_8">
      <!-- bsp_hard -->
      <g transform="translate(493.553294 268.916521) rotate(-60) scale(0.1 -0.1)">
       <use xlink:href="#DejaVuSans-62"/>
       <use xlink:href="#DejaVuSans-73" transform="translate(63.476562 0)"/>
       <use xlink:href="#DejaVuSans-70" transform="translate(115.576172 0)"/>
       <use xlink:href="#DejaVuSans-5f" transform="translate(179.052734 0)"/>
       <use xlink:href="#DejaVuSans-68" transform="translate(229.052734 0)"/>
       <use xlink:href="#DejaVuSans-61" transform="translate(292.431641 0)"/>
       <use xlink:href="#DejaVuSans-72" transform="translate(353.710938 0)"/>
       <use xlink:href="#DejaVuSans-64" transform="translate(393.074219 0)"/>
      </g>
     </g>
    </g>
   </g>
   <g id="matplotlib.axis_2">
    <g id="ytick_1">
     <g id="line2d_9">
      <defs>
       <path id="ma975a8340a" d="M 0 0 
L -3.5 0 
" style="stroke: #000000; stroke-width: 0.8"/>
      </defs>
      <g>
       <use xlink:href="#ma975a8340a" x="57.17" y="218.57783" style="stroke: #000000; stroke-width: 0.8"/>
      </g>
     </g>
     <g id="text_9">
      <!-- 0 -->
      <g transform="translate(43.8075 222.377049) scale(0.1 -0.1)">
       <defs>
        <path id="DejaVuSans-30" d="M 2034 4250 
Q 1547 4250 1301 3770 
Q 1056 3291 1056 2328 
Q 1056 1369 1301 889 
Q 1547 409 2034 409 
Q 2525 409 2770 889 
Q 3016 1369 3016 2328 
Q 3016 3291 2770 3770 
Q 2525 4250 2034 4250 
z
M 2034 4750 
Q 2819 4750 3233 4129 
Q 3647 3509 3647 2328 
Q 3647 1150 3233 529 
Q 2819 -91 2034 -91 
Q 1250 -91 836 529 
Q 422 1150 422 2328 
Q 422 3509 836 4129 
Q 1250 4750 2034 4750 
z
" transform="scale(0.015625)"/>
       </defs>
       <use xlink:href="#DejaVuSans-30"/>
      </g>
     </g>
    </g>
    <g id="ytick_2">
     <g id="line2d_10">
      <g>
       <use xlink:href="#ma975a8340a" x="57.17" y="178.716195" style="stroke: #000000; stroke-width: 0.8"/>
      </g>
     </g>
     <g id="text_10">
      <!-- 500 -->
      <g transform="translate(31.0825 182.515413) scale(0.1 -0.1)">
       <defs>
        <path id="DejaVuSans-35" d="M 691 4666 
L 3169 4666 
L 3169 4134 
L 1269 4134 
L 1269 2991 
Q 1406 3038 1543 3061 
Q 1681 3084 1819 3084 
Q 2600 3084 3056 2656 
Q 3513 2228 3513 1497 
Q 3513 744 3044 326 
Q 2575 -91 1722 -91 
Q 1428 -91 1123 -41 
Q 819 9 494 109 
L 494 744 
Q 775 591 1075 516 
Q 1375 441 1709 441 
Q 2250 441 2565 725 
Q 2881 1009 2881 1497 
Q 2881 1984 2565 2268 
Q 2250 2553 1709 2553 
Q 1456 2553 1204 2497 
Q 953 2441 691 2322 
L 691 4666 
z
" transform="scale(0.015625)"/>
       </defs>
       <use xlink:href="#DejaVuSans-35"/>
       <use xlink:href="#DejaVuSans-30" transform="translate(63.623047 0)"/>
       <use xlink:href="#DejaVuSans-30" transform="translate(127.246094 0)"/>
      </g>
     </g>
    </g>
    <g id="ytick_3">
     <g id="line2d_11">
      <g>
       <use xlink:href="#ma975a8340a" x="57.17" y="138.854559" style="stroke: #000000; stroke-width: 0.8"/>
      </g>
     </g>
     <g id="text_11">
      <!-- 1000 -->
      <g transform="translate(24.72 142.653778) scale(0.1 -0.1)">
       <defs>
        <path id="DejaVuSans-31" d="M 794 531 
L 1825 531 
L 1825 4091 
L 703 3866 
L 703 4441 
L 1819 4666 
L 2450 4666 
L 2450 531 
L 3481 531 
L 3481 0 
L 794 0 
L 794 531 
z
" transform="scale(0.015625)"/>
       </defs>
       <use xlink:href="#DejaVuSans-31"/>
       <use xlink:href="#DejaVuSans-30" transform="translate(63.623047 0)"/>
       <use xlink:href="#DejaVuSans-30" transform="translate(127.246094 0)"/>
       <use xlink:href="#DejaVuSans-30" transform="translate(190.869141 0)"/>
      </g>
     </g>
    </g>
    <g id="ytick_4">
     <g id="line2d_12">
      <g>
       <use xlink:href="#ma975a8340a" x="57.17" y="98.992924" style="stroke: #000000; stroke-width: 0.8"/>
      </g>
     </g>
     <g id="text_12">
      <!-- 1500 -->
      <g transform="translate(24.72 102.792143) scale(0.1 -0.1)">
       <use xlink:href="#DejaVuSans-31"/>
       <use xlink:href="#DejaVuSans-35" transform="translate(63.623047 0)"/>
       <use xlink:href="#DejaVuSans-30" transform="translate(127.246094 0)"/>
       <use xlink:href="#DejaVuSans-30" transform="translate(190.869141 0)"/>
      </g>
     </g>
    </g>
    <g id="ytick_5">
     <g id="line2d_13">
      <g>
       <use xlink:href="#ma975a8340a" x="57.17" y="59.131289" style="stroke: #000000; stroke-width: 0.8"/>
      </g>
     </g>
     <g id="text_13">
      <!-- 2000 -->
      <g transform="translate(24.72 62.930508) scale(0.1 -0.1)">
       <defs>
        <path id="DejaVuSans-32" d="M 1228 531 
L 3431 531 
L 3431 0 
L 469 0 
L 469 531 
Q 828 903 1448 1529 
Q 2069 2156 2228 2338 
Q 2531 2678 2651 2914 
Q 2772 3150 2772 3378 
Q 2772 3750 2511 3984 
Q 2250 4219 1831 4219 
Q 1534 4219 1204 4116 
Q 875 4013 500 3803 
L 500 4441 
Q 881 4594 1212 4672 
Q 1544 4750 1819 4750 
Q 2544 4750 2975 4387 
Q 3406 4025 3406 3419 
Q 3406 3131 3298 2873 
Q 3191 2616 2906 2266 
Q 2828 2175 2409 1742 
Q 1991 1309 1228 531 
z
" transform="scale(0.015625)"/>
       </defs>
       <use xlink:href="#DejaVuSans-32"/>
       <use xlink:href="#DejaVuSans-30" transform="translate(63.623047 0)"/>
       <use xlink:href="#DejaVuSans-30" transform="translate(127.246094 0)"/>
       <use xlink:href="#DejaVuSans-30" transform="translate(190.869141 0)"/>
      </g>
     </g>
    </g>
    <g id="text_14">
     <!-- WOWA-balanced score -->
     <g transform="translate(18.640313 179.271103) rotate(-90) scale(0.1 -0.1)">
      <defs>
       <path id="DejaVuSans-57" d="M 213 4666 
L 850 4666 
L 1831 722 
L 2809 4666 
L 3519 4666 
L 4500 722 
L 5478 4666 
L 6119 4666 
L 4947 0 
L 4153 0 
L 3169 4050 
L 2175 0 
L 1381 0 
L 213 4666 
z
" transform="scale(0.015625)"/>
       <path id="DejaVuSans-4f" d="M 2522 4238 
Q 1834 4238 1429 3725 
Q 1025 3213 1025 2328 
Q 1025 1447 1429 934 
Q 1834 422 2522 422 
Q 3209 422 3611 934 
Q 4013 1447 4013 2328 
Q 4013 3213 3611 3725 
Q 3209 4238 2522 4238 
z
M 2522 4750 
Q 3503 4750 4090 4092 
Q 4678 3434 4678 2328 
Q 4678 1225 4090 567 
Q 3503 -91 2522 -91 
Q 1538 -91 948 565 
Q 359 1222 359 2328 
Q 359 3434 948 4092 
Q 1538 4750 2522 4750 
z
" transform="scale(0.015625)"/>
       <path id="DejaVuSans-41" d="M 2188 4044 
L 1331 1722 
L 3047 1722 
L 2188 4044 
z
M 1831 4666 
L 2547 4666 
L 4325 0 
L 3669 0 
L 3244 1197 
L 1141 1197 
L 716 0 
L 50 0 
L 1831 4666 
z
" transform="scale(0.015625)"/>
       <path id="DejaVuSans-2d" d="M 313 2009 
L 1997 2009 
L 1997 1497 
L 313 1497 
L 313 2009 
z
" transform="scale(0.015625)"/>
       <path id="DejaVuSans-6c" d="M 603 4863 
L 1178 4863 
L 1178 0 
L 603 0 
L 603 4863 
z
" transform="scale(0.015625)"/>
       <path id="DejaVuSans-6e" d="M 3513 2113 
L 3513 0 
L 2938 0 
L 2938 2094 
Q 2938 2591 2744 2837 
Q 2550 3084 2163 3084 
Q 1697 3084 1428 2787 
Q 1159 2491 1159 1978 
L 1159 0 
L 581 0 
L 581 3500 
L 1159 3500 
L 1159 2956 
Q 1366 3272 1645 3428 
Q 1925 3584 2291 3584 
Q 2894 3584 3203 3211 
Q 3513 2838 3513 2113 
z
" transform="scale(0.015625)"/>
       <path id="DejaVuSans-20" transform="scale(0.015625)"/>
       <path id="DejaVuSans-6f" d="M 1959 3097 
Q 1497 3097 1228 2736 
Q 959 2375 959 1747 
Q 959 1119 1226 758 
Q 1494 397 1959 397 
Q 2419 397 2687 759 
Q 2956 1122 2956 1747 
Q 2956 2369 2687 2733 
Q 2419 3097 1959 3097 
z
M 1959 3584 
Q 2709 3584 3137 3096 
Q 3566 2609 3566 1747 
Q 3566 888 3137 398 
Q 2709 -91 1959 -91 
Q 1206 -91 779 398 
Q 353 888 353 1747 
Q 353 2609 779 3096 
Q 1206 3584 1959 3584 
z
" transform="scale(0.015625)"/>
      </defs>
      <use xlink:href="#DejaVuSans-57"/>
      <use xlink:href="#DejaVuSans-4f" transform="translate(98.876953 0)"/>
      <use xlink:href="#DejaVuSans-57" transform="translate(177.587891 0)"/>
      <use xlink:href="#DejaVuSans-41" transform="translate(270.964844 0)"/>
      <use xlink:href="#DejaVuSans-2d" transform="translate(337.123047 0)"/>
      <use xlink:href="#DejaVuSans-62" transform="translate(373.207031 0)"/>
      <use xlink:href="#DejaVuSans-61" transform="translate(436.683594 0)"/>
      <use xlink:href="#DejaVuSans-6c" transform="translate(497.962891 0)"/>
      <use xlink:href="#DejaVuSans-61" transform="translate(525.746094 0)"/>
      <use xlink:href="#DejaVuSans-6e" transform="translate(587.025391 0)"/>
      <use xlink:href="#DejaVuSans-63" transform="translate(650.404297 0)"/>
      <use xlink:href="#DejaVuSans-65" transform="translate(705.384766 0)"/>
      <use xlink:href="#DejaVuSans-64" transform="translate(766.908203 0)"/>
      <use xlink:href="#DejaVuSans-20" transform="translate(830.384766 0)"/>
      <use xlink:href="#DejaVuSans-73" transform="translate(862.171875 0)"/>
      <use xlink:href="#DejaVuSans-63" transform="translate(914.271484 0)"/>
      <use xlink:href="#DejaVuSans-6f" transform="translate(969.251953 0)"/>
      <use xlink:href="#DejaVuSans-72" transform="translate(1030.433594 0)"/>
      <use xlink:href="#DejaVuSans-65" transform="translate(1069.296875 0)"/>
     </g>
    </g>
   </g>
   <g id="patch_43">
    <path d="M 57.17 218.57783 
L 57.17 26.88 
" style="fill: none; stroke: #000000; stroke-width: 0.8; stroke-linejoin: miter; stroke-linecap: square"/>
   </g>
   <g id="patch_44">
    <path d="M 565.2 218.57783 
L 565.2 26.88 
" style="fill: none; stroke: #000000; stroke-width: 0.8; stroke-linejoin: miter; stroke-linecap: square"/>
   </g>
   <g id="patch_45">
    <path d="M 57.17 218.57783 
L 565.2 218.57783 
" style="fill: none; stroke: #000000; stroke-width: 0.8; stroke-linejoin: miter; stroke-linecap: square"/>
   </g>
   <g id="patch_46">
    <path d="M 57.17 26.88 
L 565.2 26.88 
" style="fill: none; stroke: #000000; stroke-width: 0.8; stroke-linejoin: miter; stroke-linecap: square"/>
   </g>
   <g id="text_15">
    <!-- Governed selector comparison -->
    <g transform="translate(219.144062 20.88) scale(0.12 -0.12)">
     <defs>
      <path id="DejaVuSans-47" d="M 3809 666 
L 3809 1919 
L 2778 1919 
L 2778 2438 
L 4434 2438 
L 4434 434 
Q 4069 175 3628 42 
Q 3188 -91 2688 -91 
Q 1594 -91 976 548 
Q 359 1188 359 2328 
Q 359 3472 976 4111 
Q 1594 4750 2688 4750 
Q 3144 4750 3555 4637 
Q 3966 4525 4313 4306 
L 4313 3634 
Q 3963 3931 3569 4081 
Q 3175 4231 2741 4231 
Q 1884 4231 1454 3753 
Q 1025 3275 1025 2328 
Q 1025 1384 1454 906 
Q 1884 428 2741 428 
Q 3075 428 3337 486 
Q 3600 544 3809 666 
z
" transform="scale(0.015625)"/>
      <path id="DejaVuSans-76" d="M 191 3500 
L 800 3500 
L 1894 563 
L 2988 3500 
L 3597 3500 
L 2284 0 
L 1503 0 
L 191 3500 
z
" transform="scale(0.015625)"/>
      <path id="DejaVuSans-6d" d="M 3328 2828 
Q 3544 3216 3844 3400 
Q 4144 3584 4550 3584 
Q 5097 3584 5394 3201 
Q 5691 2819 5691 2113 
L 5691 0 
L 5113 0 
L 5113 2094 
Q 5113 2597 4934 2840 
Q 4756 3084 4391 3084 
Q 3944 3084 3684 2787 
Q 3425 2491 3425 1978 
L 3425 0 
L 2847 0 
L 2847 2094 
Q 2847 2600 2669 2842 
Q 2491 3084 2119 3084 
Q 1678 3084 1418 2786 
Q 1159 2488 1159 1978 
L 1159 0 
L 581 0 
L 581 3500 
L 1159 3500 
L 1159 2956 
Q 1356 3278 1631 3431 
Q 1906 3584 2284 3584 
Q 2666 3584 2933 3390 
Q 3200 3197 3328 2828 
z
" transform="scale(0.015625)"/>
      <path id="DejaVuSans-69" d="M 603 3500 
L 1178 3500 
L 1178 0 
L 603 0 
L 603 3500 
z
M 603 4863 
L 1178 4863 
L 1178 4134 
L 603 4134 
L 603 4863 
z
" transform="scale(0.015625)"/>
     </defs>
     <use xlink:href="#DejaVuSans-47"/>
     <use xlink:href="#DejaVuSans-6f" transform="translate(77.490234 0)"/>
     <use xlink:href="#DejaVuSans-76" transform="translate(138.671875 0)"/>
     <use xlink:href="#DejaVuSans-65" transform="translate(197.851562 0)"/>
     <use xlink:href="#DejaVuSans-72" transform="translate(259.375 0)"/>
     <use xlink:href="#DejaVuSans-6e" transform="translate(298.738281 0)"/>
     <use xlink:href="#DejaVuSans-65" transform="translate(362.117188 0)"/>
     <use xlink:href="#DejaVuSans-64" transform="translate(423.640625 0)"/>
     <use xlink:href="#DejaVuSans-20" transform="translate(487.117188 0)"/>
     <use xlink:href="#DejaVuSans-73" transform="translate(518.904297 0)"/>
     <use xlink:href="#DejaVuSans-65" transform="translate(571.003906 0)"/>
     <use xlink:href="#DejaVuSans-6c" transform="translate(632.527344 0)"/>
     <use xlink:href="#DejaVuSans-65" transform="translate(660.310547 0)"/>
     <use xlink:href="#DejaVuSans-63" transform="translate(721.833984 0)"/>
     <use xlink:href="#DejaVuSans-74" transform="translate(776.814453 0)"/>
     <use xlink:href="#DejaVuSans-6f" transform="translate(816.023438 0)"/>
     <use xlink:href="#DejaVuSans-72" transform="translate(877.205078 0)"/>
     <use xlink:href="#DejaVuSans-20" transform="translate(918.318359 0)"/>
     <use xlink:href="#DejaVuSans-63" transform="translate(950.105469 0)"/>
     <use xlink:href="#DejaVuSans-6f" transform="translate(1005.085938 0)"/>
     <use xlink:href="#DejaVuSans-6d" transform="translate(1066.267578 0)"/>
     <use xlink:href="#DejaVuSans-70" transform="translate(1163.679688 0)"/>
     <use xlink:href="#DejaVuSans-61" transform="translate(1227.15625 0)"/>
     <use xlink:href="#DejaVuSans-72" transform="translate(1288.435547 0)"/>
     <use xlink:href="#DejaVuSans-69" transform="translate(1329.548828 0)"/>
     <use xlink:href="#DejaVuSans-73" transform="translate(1357.332031 0)"/>
     <use xlink:href="#DejaVuSans-6f" transform="translate(1409.431641 0)"/>
     <use xlink:href="#DejaVuSans-6e" transform="translate(1470.613281 0)"/>
    </g>
   </g>
   <g id="legend_1">
    <g id="patch_47">
     <path d="M 445.75375 84.826875 
L 560.3 84.826875 
Q 561.7 84.826875 561.7 83.426875 
L 561.7 31.78 
Q 561.7 30.38 560.3 30.38 
L 445.75375 30.38 
Q 444.35375 30.38 444.35375 31.78 
L 444.35375 83.426875 
Q 444.35375 84.826875 445.75375 84.826875 
z
" style="fill: #ffffff; opacity: 0.8; stroke: #cccccc; stroke-linejoin: miter"/>
    </g>
    <g id="patch_48">
     <path d="M 447.15375 38.498906 
L 461.15375 38.498906 
L 461.15375 33.598906 
L 447.15375 33.598906 
z
" style="fill: #1f77b4"/>
    </g>
    <g id="text_16">
     <!-- governed_mean -->
     <g transform="translate(466.75375 38.498906) scale(0.07 -0.07)">
      <use xlink:href="#DejaVuSans-67"/>
      <use xlink:href="#DejaVuSans-6f" transform="translate(63.476562 0)"/>
      <use xlink:href="#DejaVuSans-76" transform="translate(124.658203 0)"/>
      <use xlink:href="#DejaVuSans-65" transform="translate(183.837891 0)"/>
      <use xlink:href="#DejaVuSans-72" transform="translate(245.361328 0)"/>
      <use xlink:href="#DejaVuSans-6e" transform="translate(284.724609 0)"/>
      <use xlink:href="#DejaVuSans-65" transform="translate(348.103516 0)"/>
      <use xlink:href="#DejaVuSans-64" transform="translate(409.626953 0)"/>
      <use xlink:href="#DejaVuSans-5f" transform="translate(473.103516 0)"/>
      <use xlink:href="#DejaVuSans-6d" transform="translate(523.103516 0)"/>
      <use xlink:href="#DejaVuSans-65" transform="translate(620.515625 0)"/>
      <use xlink:href="#DejaVuSans-61" transform="translate(682.039062 0)"/>
      <use xlink:href="#DejaVuSans-6e" transform="translate(743.318359 0)"/>
     </g>
    </g>
    <g id="patch_49">
     <path d="M 447.15375 48.968281 
L 461.15375 48.968281 
L 461.15375 44.068281 
L 447.15375 44.068281 
z
" style="fill: #ff7f0e"/>
    </g>
    <g id="text_17">
     <!-- governed_cvar05 -->
     <g transform="translate(466.75375 48.968281) scale(0.07 -0.07)">
      <use xlink:href="#DejaVuSans-67"/>
      <use xlink:href="#DejaVuSans-6f" transform="translate(63.476562 0)"/>
      <use xlink:href="#DejaVuSans-76" transform="translate(124.658203 0)"/>
      <use xlink:href="#DejaVuSans-65" transform="translate(183.837891 0)"/>
      <use xlink:href="#DejaVuSans-72" transform="translate(245.361328 0)"/>
      <use xlink:href="#DejaVuSans-6e" transform="translate(284.724609 0)"/>
      <use xlink:href="#DejaVuSans-65" transform="translate(348.103516 0)"/>
      <use xlink:href="#DejaVuSans-64" transform="translate(409.626953 0)"/>
      <use xlink:href="#DejaVuSans-5f" transform="translate(473.103516 0)"/>
      <use xlink:href="#DejaVuSans-63" transform="translate(523.103516 0)"/>
      <use xlink:href="#DejaVuSans-76" transform="translate(578.083984 0)"/>
      <use xlink:href="#DejaVuSans-61" transform="translate(637.263672 0)"/>
      <use xlink:href="#DejaVuSans-72" transform="translate(698.542969 0)"/>
      <use xlink:href="#DejaVuSans-30" transform="translate(739.65625 0)"/>
      <use xlink:href="#DejaVuSans-35" transform="translate(803.279297 0)"/>
     </g>
    </g>
    <g id="patch_50">
     <path d="M 447.15375 59.437656 
L 461.15375 59.437656 
L 461.15375 54.537656 
L 447.15375 54.537656 
z
" style="fill: #2ca02c"/>
    </g>
    <g id="text_18">
     <!-- governed_cvar25 -->
     <g transform="translate(466.75375 59.437656) scale(0.07 -0.07)">
      <use xlink:href="#DejaVuSans-67"/>
      <use xlink:href="#DejaVuSans-6f" transform="translate(63.476562 0)"/>
      <use xlink:href="#DejaVuSans-76" transform="translate(124.658203 0)"/>
      <use xlink:href="#DejaVuSans-65" transform="translate(183.837891 0)"/>
      <use xlink:href="#DejaVuSans-72" transform="translate(245.361328 0)"/>
      <use xlink:href="#DejaVuSans-6e" transform="translate(284.724609 0)"/>
      <use xlink:href="#DejaVuSans-65" transform="translate(348.103516 0)"/>
      <use xlink:href="#DejaVuSans-64" transform="translate(409.626953 0)"/>
      <use xlink:href="#DejaVuSans-5f" transform="translate(473.103516 0)"/>
      <use xlink:href="#DejaVuSans-63" transform="translate(523.103516 0)"/>
      <use xlink:href="#DejaVuSans-76" transform="translate(578.083984 0)"/>
      <use xlink:href="#DejaVuSans-61" transform="translate(637.263672 0)"/>
      <use xlink:href="#DejaVuSans-72" transform="translate(698.542969 0)"/>
      <use xlink:href="#DejaVuSans-32" transform="translate(739.65625 0)"/>
      <use xlink:href="#DejaVuSans-35" transform="translate(803.279297 0)"/>
     </g>
    </g>
    <g id="patch_51">
     <path d="M 447.15375 69.907031 
L 461.15375 69.907031 
L 461.15375 65.007031 
L 447.15375 65.007031 
z
" style="fill: #d62728"/>
    </g>
    <g id="text_19">
     <!-- governed_wowa_balanced -->
     <g transform="translate(466.75375 69.907031) scale(0.07 -0.07)">
      <defs>
       <path id="DejaVuSans-77" d="M 269 3500 
L 844 3500 
L 1563 769 
L 2278 3500 
L 2956 3500 
L 3675 769 
L 4391 3500 
L 4966 3500 
L 4050 0 
L 3372 0 
L 2619 2869 
L 1863 0 
L 1184 0 
L 269 3500 
z
" transform="scale(0.015625)"/>
      </defs>
      <use xlink:href="#DejaVuSans-67"/>
      <use xlink:href="#DejaVuSans-6f" transform="translate(63.476562 0)"/>
      <use xlink:href="#DejaVuSans-76" transform="translate(124.658203 0)"/>
      <use xlink:href="#DejaVuSans-65" transform="translate(183.837891 0)"/>
      <use xlink:href="#DejaVuSans-72" transform="translate(245.361328 0)"/>
      <use xlink:href="#DejaVuSans-6e" transform="translate(284.724609 0)"/>
      <use xlink:href="#DejaVuSans-65" transform="translate(348.103516 0)"/>
      <use xlink:href="#DejaVuSans-64" transform="translate(409.626953 0)"/>
      <use xlink:href="#DejaVuSans-5f" transform="translate(473.103516 0)"/>
      <use xlink:href="#DejaVuSans-77" transform="translate(523.103516 0)"/>
      <use xlink:href="#DejaVuSans-6f" transform="translate(604.890625 0)"/>
      <use xlink:href="#DejaVuSans-77" transform="translate(666.072266 0)"/>
      <use xlink:href="#DejaVuSans-61" transform="translate(747.859375 0)"/>
      <use xlink:href="#DejaVuSans-5f" transform="translate(809.138672 0)"/>
      <use xlink:href="#DejaVuSans-62" transform="translate(859.138672 0)"/>
      <use xlink:href="#DejaVuSans-61" transform="translate(922.615234 0)"/>
      <use xlink:href="#DejaVuSans-6c" transform="translate(983.894531 0)"/>
      <use xlink:href="#DejaVuSans-61" transform="translate(1011.677734 0)"/>
      <use xlink:href="#DejaVuSans-6e" transform="translate(1072.957031 0)"/>
      <use xlink:href="#DejaVuSans-63" transform="translate(1136.335938 0)"/>
      <use xlink:href="#DejaVuSans-65" transform="translate(1191.316406 0)"/>
      <use xlink:href="#DejaVuSans-64" transform="translate(1252.839844 0)"/>
     </g>
    </g>
    <g id="patch_52">
     <path d="M 447.15375 80.376406 
L 461.15375 80.376406 
L 461.15375 75.476406 
L 447.15375 75.476406 
z
" style="fill: #9467bd"/>
    </g>
    <g id="text_20">
     <!-- governed_wowa_severe -->
     <g transform="translate(466.75375 80.376406) scale(0.07 -0.07)">
      <use xlink:href="#DejaVuSans-67"/>
      <use xlink:href="#DejaVuSans-6f" transform="translate(63.476562 0)"/>
      <use xlink:href="#DejaVuSans-76" transform="translate(124.658203 0)"/>
      <use xlink:href="#DejaVuSans-65" transform="translate(183.837891 0)"/>
      <use xlink:href="#DejaVuSans-72" transform="translate(245.361328 0)"/>
      <use xlink:href="#DejaVuSans-6e" transform="translate(284.724609 0)"/>
      <use xlink:href="#DejaVuSans-65" transform="translate(348.103516 0)"/>
      <use xlink:href="#DejaVuSans-64" transform="translate(409.626953 0)"/>
      <use xlink:href="#DejaVuSans-5f" transform="translate(473.103516 0)"/>
      <use xlink:href="#DejaVuSans-77" transform="translate(523.103516 0)"/>
      <use xlink:href="#DejaVuSans-6f" transform="translate(604.890625 0)"/>
      <use xlink:href="#DejaVuSans-77" transform="translate(666.072266 0)"/>
      <use xlink:href="#DejaVuSans-61" transform="translate(747.859375 0)"/>
      <use xlink:href="#DejaVuSans-5f" transform="translate(809.138672 0)"/>
      <use xlink:href="#DejaVuSans-73" transform="translate(859.138672 0)"/>
      <use xlink:href="#DejaVuSans-65" transform="translate(911.238281 0)"/>
      <use xlink:href="#DejaVuSans-76" transform="translate(972.761719 0)"/>
      <use xlink:href="#DejaVuSans-65" transform="translate(1031.941406 0)"/>
      <use xlink:href="#DejaVuSans-72" transform="translate(1093.464844 0)"/>
      <use xlink:href="#DejaVuSans-65" transform="translate(1132.328125 0)"/>
     </g>
    </g>
   </g>
  </g>
 </g>
 <defs>
  <clipPath id="p8034f6bb3b">
   <rect x="57.17" y="26.88" width="508.03" height="191.69783"/>
  </clipPath>
 </defs>
</svg>
