<?xml version="1.0" encoding="utf-8" standalone="no"?>
<!DOCTYPE svg PUBLIC "-//W3C//DTD SVG 1.1//EN"
  "http://www.w3.org/Graphics/SVG/1.1/DTD/svg11.dtd">
<svg xmlns:xlink="http://www.w3.org/1999/xlink" width="504pt" height="288pt" viewBox="0 0 504 288" xmlns="http://www.w3.org/2000/svg" version="1.1">
 <metadata>
  <rdf:RDF xmlns:dc="http://purl.org/dc/elements/1.1/" xmlns:cc="http://creativecommons.org/ns#" xmlns:rdf="http://www.w3.org/1999/02/22-rdf-syntax-ns#">
   <cc:Work>
    <dc:type rdf:resource="http://purl.org/dc/dcmitype/StillImage"/>
    <dc:date>2026-05-01T15:21:15.651421</dc:date>
    <dc:format>image/svg+xml</dc:format>
    <dc:creator>
     <cc:Agent>
      <dc:title>Matplotlib v3.10.9, https://matplotlib.org/</dc:title>
     </cc:Agent>
    </dc:creator>
   </cc:Work>
  </rdf:RDF>
 </metadata>
 <defs>
  <style type="text/css">*{stroke-linejoin: round; stroke-linecap: butt}</style>
 </defs>
 <g id="figure_1">
  <g id="patch_1">
   <path d="M 0 288 
L 504 288 
L 504 0 
L 0 0 
z
" style="fill: #ffffff"/>
  </g>
  <g id="axes_1">
   <g id="patch_2">
    <path d="M 63.56 242.728 
L 493.2 242.728 
L 493.2 26.88 
L 63.56 26.88 
z
" style="fill: #ffffff"/>
   </g>
   <g id="matplotlib.axis_1">
    <g id="xtick_1">
     <g id="line2d_1">
      <defs>
       <path id="m5eada4aa56" d="M 0 0 
L 0 3.5 
" style="stroke: #000000; stroke-width: 0.8"/>
      </defs>
      <g>
       <use xlink:href="#m5eada4aa56" x="83.089091" y="242.728" style="stroke: #000000; stroke-width: 0.8"/>
      </g>
     </g>
     <g id="text_1">
      <!-- $\mathdefault{10^{2}}$ -->
      <g transform="translate(74.289091 257.326437) scale(0.1 -0.1)">
       <defs>
        <path id="DejaVuSans-31" d="M 794 531 
L 1825 531 
L 1825 4091 
L 703 3866 
L 703 4441 
L 1819 4666 
L 2450 4666 
L 2450 531 
L 3481 531 
L 3481 0 
L 794 0 
L 794 531 
z
" transform="scale(0.015625)"/>
        <path id="DejaVuSans-30" d="M 2034 4250 
Q 1547 4250 1301 3770 
Q 1056 3291 1056 2328 
Q 1056 1369 1301 889 
Q 1547 409 2034 409 
Q 2525 409 2770 889 
Q 3016 1369 3016 2328 
Q 3016 3291 2770 3770 
Q 2525 4250 2034 4250 
z
M 2034 4750 
Q 2819 4750 3233 4129 
Q 3647 3509 3647 2328 
Q 3647 1150 3233 529 
Q 2819 -91 2034 -91 
Q 1250 -91 836 529 
Q 422 1150 422 2328 
Q 422 3509 836 4129 
Q 1250 4750 2034 4750 
z
" transform="scale(0.015625)"/>
        <path id="DejaVuSans-32" d="M 1228 531 
L 3431 531 
L 3431 0 
L 469 0 
L 469 531 
Q 828 903 1448 1529 
Q 2069 2156 2228 2338 
Q 2531 2678 2651 2914 
Q 2772 3150 2772 3378 
Q 2772 3750 2511 3984 
Q 2250 4219 1831 4219 
Q 1534 4219 1204 4116 
Q 875 4013 500 3803 
L 500 4441 
Q 881 4594 1212 4672 
Q 1544 4750 1819 4750 
Q 2544 4750 2975 4387 
Q 3406 4025 3406 3419 
Q 3406 3131 3298 2873 
Q 3191 2616 2906 2266 
Q 2828 2175 2409 1742 
Q 1991 1309 1228 531 
z
" transform="scale(0.015625)"/>
       </defs>
       <use xlink:href="#DejaVuSans-31" transform="translate(0 0.765625)"/>
       <use xlink:href="#DejaVuSans-30" transform="translate(63.623047 0.765625)"/>
       <use xlink:href="#DejaVuSans-32" transform="translate(128.203125 39.046875) scale(0.7)"/>
      </g>
     </g>
    </g>
    <g id="xtick_2">
     <g id="line2d_2">
      <g>
       <use xlink:href="#m5eada4aa56" x="278.38" y="242.728" style="stroke: #000000; stroke-width: 0.8"/>
      </g>
     </g>
     <g id="text_2">
      <!-- $\mathdefault{10^{3}}$ -->
      <g transform="translate(269.58 257.326437) scale(0.1 -0.1)">
       <defs>
        <path id="DejaVuSans-33" d="M 2597 2516 
Q 3050 2419 3304 2112 
Q 3559 1806 3559 1356 
Q 3559 666 3084 287 
Q 2609 -91 1734 -91 
Q 1441 -91 1130 -33 
Q 819 25 488 141 
L 488 750 
Q 750 597 1062 519 
Q 1375 441 1716 441 
Q 2309 441 2620 675 
Q 2931 909 2931 1356 
Q 2931 1769 2642 2001 
Q 2353 2234 1838 2234 
L 1294 2234 
L 1294 2753 
L 1863 2753 
Q 2328 2753 2575 2939 
Q 2822 3125 2822 3475 
Q 2822 3834 2567 4026 
Q 2313 4219 1838 4219 
Q 1578 4219 1281 4162 
Q 984 4106 628 3988 
L 628 4550 
Q 988 4650 1302 4700 
Q 1616 4750 1894 4750 
Q 2613 4750 3031 4423 
Q 3450 4097 3450 3541 
Q 3450 3153 3228 2886 
Q 3006 2619 2597 2516 
z
" transform="scale(0.015625)"/>
       </defs>
       <use xlink:href="#DejaVuSans-31" transform="translate(0 0.765625)"/>
       <use xlink:href="#DejaVuSans-30" transform="translate(63.623047 0.765625)"/>
       <use xlink:href="#DejaVuSans-33" transform="translate(128.203125 39.046875) scale(0.7)"/>
      </g>
     </g>
    </g>
    <g id="xtick_3">
     <g id="line2d_3">
      <g>
       <use xlink:href="#m5eada4aa56" x="473.670909" y="242.728" style="stroke: #000000; stroke-width: 0.8"/>
      </g>
     </g>
     <g id="text_3">
      <!-- $\mathdefault{10^{4}}$ -->
      <g transform="translate(464.870909 257.326437) scale(0.1 -0.1)">
       <defs>
        <path id="DejaVuSans-34" d="M 2419 4116 
L 825 1625 
L 2419 1625 
L 2419 4116 
z
M 2253 4666 
L 3047 4666 
L 3047 1625 
L 3713 1625 
L 3713 1100 
L 3047 1100 
L 3047 0 
L 2419 0 
L 2419 1100 
L 313 1100 
L 313 1709 
L 2253 4666 
z
" transform="scale(0.015625)"/>
       </defs>
       <use xlink:href="#DejaVuSans-31" transform="translate(0 0.684375)"/>
       <use xlink:href="#DejaVuSans-30" transform="translate(63.623047 0.684375)"/>
       <use xlink:href="#DejaVuSans-34" transform="translate(128.203125 38.965625) scale(0.7)"/>
      </g>
     </g>
    </g>
    <g id="xtick_4">
     <g id="line2d_4">
      <defs>
       <path id="m2dd25a3864" d="M 0 0 
L 0 2 
" style="stroke: #000000; stroke-width: 0.6"/>
      </defs>
      <g>
       <use xlink:href="#m2dd25a3864" x="64.163446" y="242.728" style="stroke: #000000; stroke-width: 0.6"/>
      </g>
     </g>
    </g>
    <g id="xtick_5">
     <g id="line2d_5">
      <g>
       <use xlink:href="#m2dd25a3864" x="74.153069" y="242.728" style="stroke: #000000; stroke-width: 0.6"/>
      </g>
     </g>
    </g>
    <g id="xtick_6">
     <g id="line2d_6">
      <g>
       <use xlink:href="#m2dd25a3864" x="141.877512" y="242.728" style="stroke: #000000; stroke-width: 0.6"/>
      </g>
     </g>
    </g>
    <g id="xtick_7">
     <g id="line2d_7">
      <g>
       <use xlink:href="#m2dd25a3864" x="176.266534" y="242.728" style="stroke: #000000; stroke-width: 0.6"/>
      </g>
     </g>
    </g>
    <g id="xtick_8">
     <g id="line2d_8">
      <g>
       <use xlink:href="#m2dd25a3864" x="200.665934" y="242.728" style="stroke: #000000; stroke-width: 0.6"/>
      </g>
     </g>
    </g>
    <g id="xtick_9">
     <g id="line2d_9">
      <g>
       <use xlink:href="#m2dd25a3864" x="219.591578" y="242.728" style="stroke: #000000; stroke-width: 0.6"/>
      </g>
     </g>
    </g>
    <g id="xtick_10">
     <g id="line2d_10">
      <g>
       <use xlink:href="#m2dd25a3864" x="235.054956" y="242.728" style="stroke: #000000; stroke-width: 0.6"/>
      </g>
     </g>
    </g>
    <g id="xtick_11">
     <g id="line2d_11">
      <g>
       <use xlink:href="#m2dd25a3864" x="248.129055" y="242.728" style="stroke: #000000; stroke-width: 0.6"/>
      </g>
     </g>
    </g>
    <g id="xtick_12">
     <g id="line2d_12">
      <g>
       <use xlink:href="#m2dd25a3864" x="259.454355" y="242.728" style="stroke: #000000; stroke-width: 0.6"/>
      </g>
     </g>
    </g>
    <g id="xtick_13">
     <g id="line2d_13">
      <g>
       <use xlink:href="#m2dd25a3864" x="269.443978" y="242.728" style="stroke: #000000; stroke-width: 0.6"/>
      </g>
     </g>
    </g>
    <g id="xtick_14">
     <g id="line2d_14">
      <g>
       <use xlink:href="#m2dd25a3864" x="337.168422" y="242.728" style="stroke: #000000; stroke-width: 0.6"/>
      </g>
     </g>
    </g>
    <g id="xtick_15">
     <g id="line2d_15">
      <g>
       <use xlink:href="#m2dd25a3864" x="371.557444" y="242.728" style="stroke: #000000; stroke-width: 0.6"/>
      </g>
     </g>
    </g>
    <g id="xtick_16">
     <g id="line2d_16">
      <g>
       <use xlink:href="#m2dd25a3864" x="395.956843" y="242.728" style="stroke: #000000; stroke-width: 0.6"/>
      </g>
     </g>
    </g>
    <g id="xtick_17">
     <g id="line2d_17">
      <g>
       <use xlink:href="#m2dd25a3864" x="414.882488" y="242.728" style="stroke: #000000; stroke-width: 0.6"/>
      </g>
     </g>
    </g>
    <g id="xtick_18">
     <g id="line2d_18">
      <g>
       <use xlink:href="#m2dd25a3864" x="430.345865" y="242.728" style="stroke: #000000; stroke-width: 0.6"/>
      </g>
     </g>
    </g>
    <g id="xtick_19">
     <g id="line2d_19">
      <g>
       <use xlink:href="#m2dd25a3864" x="443.419965" y="242.728" style="stroke: #000000; stroke-width: 0.6"/>
      </g>
     </g>
    </g>
    <g id="xtick_20">
     <g id="line2d_20">
      <g>
       <use xlink:href="#m2dd25a3864" x="454.745265" y="242.728" style="stroke: #000000; stroke-width: 0.6"/>
      </g>
     </g>
    </g>
    <g id="xtick_21">
     <g id="line2d_21">
      <g>
       <use xlink:href="#m2dd25a3864" x="464.734887" y="242.728" style="stroke: #000000; stroke-width: 0.6"/>
      </g>
     </g>
    </g>
    <g id="text_4">
     <!-- Evaluation budget -->
     <g transform="translate(232.680781 271.004563) scale(0.1 -0.1)">
      <defs>
       <path id="DejaVuSans-45" d="M 628 4666 
L 3578 4666 
L 3578 4134 
L 1259 4134 
L 1259 2753 
L 3481 2753 
L 3481 2222 
L 1259 2222 
L 1259 531 
L 3634 531 
L 3634 0 
L 628 0 
L 628 4666 
z
" transform="scale(0.015625)"/>
       <path id="DejaVuSans-76" d="M 191 3500 
L 800 3500 
L 1894 563 
L 2988 3500 
L 3597 3500 
L 2284 0 
L 1503 0 
L 191 3500 
z
" transform="scale(0.015625)"/>
       <path id="DejaVuSans-61" d="M 2194 1759 
Q 1497 1759 1228 1600 
Q 959 1441 959 1056 
Q 959 750 1161 570 
Q 1363 391 1709 391 
Q 2188 391 2477 730 
Q 2766 1069 2766 1631 
L 2766 1759 
L 2194 1759 
z
M 3341 1997 
L 3341 0 
L 2766 0 
L 2766 531 
Q 2569 213 2275 61 
Q 1981 -91 1556 -91 
Q 1019 -91 701 211 
Q 384 513 384 1019 
Q 384 1609 779 1909 
Q 1175 2209 1959 2209 
L 2766 2209 
L 2766 2266 
Q 2766 2663 2505 2880 
Q 2244 3097 1772 3097 
Q 1472 3097 1187 3025 
Q 903 2953 641 2809 
L 641 3341 
Q 956 3463 1253 3523 
Q 1550 3584 1831 3584 
Q 2591 3584 2966 3190 
Q 3341 2797 3341 1997 
z
" transform="scale(0.015625)"/>
       <path id="DejaVuSans-6c" d="M 603 4863 
L 1178 4863 
L 1178 0 
L 603 0 
L 603 4863 
z
" transform="scale(0.015625)"/>
       <path id="DejaVuSans-75" d="M 544 1381 
L 544 3500 
L 1119 3500 
L 1119 1403 
Q 1119 906 1312 657 
Q 1506 409 1894 409 
Q 2359 409 2629 706 
Q 2900 1003 2900 1516 
L 2900 3500 
L 3475 3500 
L 3475 0 
L 2900 0 
L 2900 538 
Q 2691 219 2414 64 
Q 2138 -91 1772 -91 
Q 1169 -91 856 284 
Q 544 659 544 1381 
z
M 1991 3584 
L 1991 3584 
z
" transform="scale(0.015625)"/>
       <path id="DejaVuSans-74" d="M 1172 4494 
L 1172 3500 
L 2356 3500 
L 2356 3053 
L 1172 3053 
L 1172 1153 
Q 1172 725 1289 603 
Q 1406 481 1766 481 
L 2356 481 
L 2356 0 
L 1766 0 
Q 1100 0 847 248 
Q 594 497 594 1153 
L 594 3053 
L 172 3053 
L 172 3500 
L 594 3500 
L 594 4494 
L 1172 4494 
z
" transform="scale(0.015625)"/>
       <path id="DejaVuSans-69" d="M 603 3500 
L 1178 3500 
L 1178 0 
L 603 0 
L 603 3500 
z
M 603 4863 
L 1178 4863 
L 1178 4134 
L 603 4134 
L 603 4863 
z
" transform="scale(0.015625)"/>
       <path id="DejaVuSans-6f" d="M 1959 3097 
Q 1497 3097 1228 2736 
Q 959 2375 959 1747 
Q 959 1119 1226 758 
Q 1494 397 1959 397 
Q 2419 397 2687 759 
Q 2956 1122 2956 1747 
Q 2956 2369 2687 2733 
Q 2419 3097 1959 3097 
z
M 1959 3584 
Q 2709 3584 3137 3096 
Q 3566 2609 3566 1747 
Q 3566 888 3137 398 
Q 2709 -91 1959 -91 
Q 1206 -91 779 398 
Q 353 888 353 1747 
Q 353 2609 779 3096 
Q 1206 3584 1959 3584 
z
" transform="scale(0.015625)"/>
       <path id="DejaVuSans-6e" d="M 3513 2113 
L 3513 0 
L 2938 0 
L 2938 2094 
Q 2938 2591 2744 2837 
Q 2550 3084 2163 3084 
Q 1697 3084 1428 2787 
Q 1159 2491 1159 1978 
L 1159 0 
L 581 0 
L 581 3500 
L 1159 3500 
L 1159 2956 
Q 1366 3272 1645 3428 
Q 1925 3584 2291 3584 
Q 2894 3584 3203 3211 
Q 3513 2838 3513 2113 
z
" transform="scale(0.015625)"/>
       <path id="DejaVuSans-20" transform="scale(0.015625)"/>
       <path id="DejaVuSans-62" d="M 3116 1747 
Q 3116 2381 2855 2742 
Q 2594 3103 2138 3103 
Q 1681 3103 1420 2742 
Q 1159 2381 1159 1747 
Q 1159 1113 1420 752 
Q 1681 391 2138 391 
Q 2594 391 2855 752 
Q 3116 1113 3116 1747 
z
M 1159 2969 
Q 1341 3281 1617 3432 
Q 1894 3584 2278 3584 
Q 2916 3584 3314 3078 
Q 3713 2572 3713 1747 
Q 3713 922 3314 415 
Q 2916 -91 2278 -91 
Q 1894 -91 1617 61 
Q 1341 213 1159 525 
L 1159 0 
L 581 0 
L 581 4863 
L 1159 4863 
L 1159 2969 
z
" transform="scale(0.015625)"/>
       <path id="DejaVuSans-64" d="M 2906 2969 
L 2906 4863 
L 3481 4863 
L 3481 0 
L 2906 0 
L 2906 525 
Q 2725 213 2448 61 
Q 2172 -91 1784 -91 
Q 1150 -91 751 415 
Q 353 922 353 1747 
Q 353 2572 751 3078 
Q 1150 3584 1784 3584 
Q 2172 3584 2448 3432 
Q 2725 3281 2906 2969 
z
M 947 1747 
Q 947 1113 1208 752 
Q 1469 391 1925 391 
Q 2381 391 2643 752 
Q 2906 1113 2906 1747 
Q 2906 2381 2643 2742 
Q 2381 3103 1925 3103 
Q 1469 3103 1208 2742 
Q 947 2381 947 1747 
z
" transform="scale(0.015625)"/>
       <path id="DejaVuSans-67" d="M 2906 1791 
Q 2906 2416 2648 2759 
Q 2391 3103 1925 3103 
Q 1463 3103 1205 2759 
Q 947 2416 947 1791 
Q 947 1169 1205 825 
Q 1463 481 1925 481 
Q 2391 481 2648 825 
Q 2906 1169 2906 1791 
z
M 3481 434 
Q 3481 -459 3084 -895 
Q 2688 -1331 1869 -1331 
Q 1566 -1331 1297 -1286 
Q 1028 -1241 775 -1147 
L 775 -588 
Q 1028 -725 1275 -790 
Q 1522 -856 1778 -856 
Q 2344 -856 2625 -561 
Q 2906 -266 2906 331 
L 2906 616 
Q 2728 306 2450 153 
Q 2172 0 1784 0 
Q 1141 0 747 490 
Q 353 981 353 1791 
Q 353 2603 747 3093 
Q 1141 3584 1784 3584 
Q 2172 3584 2450 3431 
Q 2728 3278 2906 2969 
L 2906 3500 
L 3481 3500 
L 3481 434 
z
" transform="scale(0.015625)"/>
       <path id="DejaVuSans-65" d="M 3597 1894 
L 3597 1613 
L 953 1613 
Q 991 1019 1311 708 
Q 1631 397 2203 397 
Q 2534 397 2845 478 
Q 3156 559 3463 722 
L 3463 178 
Q 3153 47 2828 -22 
Q 2503 -91 2169 -91 
Q 1331 -91 842 396 
Q 353 884 353 1716 
Q 353 2575 817 3079 
Q 1281 3584 2069 3584 
Q 2775 3584 3186 3129 
Q 3597 2675 3597 1894 
z
M 3022 2063 
Q 3016 2534 2758 2815 
Q 2500 3097 2075 3097 
Q 1594 3097 1305 2825 
Q 1016 2553 972 2059 
L 3022 2063 
z
" transform="scale(0.015625)"/>
      </defs>
      <use xlink:href="#DejaVuSans-45"/>
      <use xlink:href="#DejaVuSans-76" transform="translate(63.183594 0)"/>
      <use xlink:href="#DejaVuSans-61" transform="translate(122.363281 0)"/>
      <use xlink:href="#DejaVuSans-6c" transform="translate(183.642578 0)"/>
      <use xlink:href="#DejaVuSans-75" transform="translate(211.425781 0)"/>
      <use xlink:href="#DejaVuSans-61" transform="translate(274.804688 0)"/>
      <use xlink:href="#DejaVuSans-74" transform="translate(336.083984 0)"/>
      <use xlink:href="#DejaVuSans-69" transform="translate(375.292969 0)"/>
      <use xlink:href="#DejaVuSans-6f" transform="translate(403.076172 0)"/>
      <use xlink:href="#DejaVuSans-6e" transform="translate(464.257812 0)"/>
      <use xlink:href="#DejaVuSans-20" transform="translate(527.636719 0)"/>
      <use xlink:href="#DejaVuSans-62" transform="translate(559.423828 0)"/>
      <use xlink:href="#DejaVuSans-75" transform="translate(622.900391 0)"/>
      <use xlink:href="#DejaVuSans-64" transform="translate(686.279297 0)"/>
      <use xlink:href="#DejaVuSans-67" transform="translate(749.755859 0)"/>
      <use xlink:href="#DejaVuSans-65" transform="translate(813.232422 0)"/>
      <use xlink:href="#DejaVuSans-74" transform="translate(874.755859 0)"/>
     </g>
    </g>
   </g>
   <g id="matplotlib.axis_2">
    <g id="ytick_1">
     <g id="line2d_22">
      <defs>
       <path id="m4429f332bf" d="M 0 0 
L -3.5 0 
" style="stroke: #000000; stroke-width: 0.8"/>
      </defs>
      <g>
       <use xlink:href="#m4429f332bf" x="63.56" y="238.582784" style="stroke: #000000; stroke-width: 0.8"/>
      </g>
     </g>
     <g id="text_5">
      <!-- 10500 -->
      <g transform="translate(24.7475 242.382003) scale(0.1 -0.1)">
       <defs>
        <path id="DejaVuSans-35" d="M 691 4666 
L 3169 4666 
L 3169 4134 
L 1269 4134 
L 1269 2991 
Q 1406 3038 1543 3061 
Q 1681 3084 1819 3084 
Q 2600 3084 3056 2656 
Q 3513 2228 3513 1497 
Q 3513 744 3044 326 
Q 2575 -91 1722 -91 
Q 1428 -91 1123 -41 
Q 819 9 494 109 
L 494 744 
Q 775 591 1075 516 
Q 1375 441 1709 441 
Q 2250 441 2565 725 
Q 2881 1009 2881 1497 
Q 2881 1984 2565 2268 
Q 2250 2553 1709 2553 
Q 1456 2553 1204 2497 
Q 953 2441 691 2322 
L 691 4666 
z
" transform="scale(0.015625)"/>
       </defs>
       <use xlink:href="#DejaVuSans-31"/>
       <use xlink:href="#DejaVuSans-30" transform="translate(63.623047 0)"/>
       <use xlink:href="#DejaVuSans-35" transform="translate(127.246094 0)"/>
       <use xlink:href="#DejaVuSans-30" transform="translate(190.869141 0)"/>
       <use xlink:href="#DejaVuSans-30" transform="translate(254.492188 0)"/>
      </g>
     </g>
    </g>
    <g id="ytick_2">
     <g id="line2d_23">
      <g>
       <use xlink:href="#m4429f332bf" x="63.56" y="205.810564" style="stroke: #000000; stroke-width: 0.8"/>
      </g>
     </g>
     <g id="text_6">
      <!-- 11000 -->
      <g transform="translate(24.7475 209.609783) scale(0.1 -0.1)">
       <use xlink:href="#DejaVuSans-31"/>
       <use xlink:href="#DejaVuSans-31" transform="translate(63.623047 0)"/>
       <use xlink:href="#DejaVuSans-30" transform="translate(127.246094 0)"/>
       <use xlink:href="#DejaVuSans-30" transform="translate(190.869141 0)"/>
       <use xlink:href="#DejaVuSans-30" transform="translate(254.492188 0)"/>
      </g>
     </g>
    </g>
    <g id="ytick_3">
     <g id="line2d_24">
      <g>
       <use xlink:href="#m4429f332bf" x="63.56" y="173.038344" style="stroke: #000000; stroke-width: 0.8"/>
      </g>
     </g>
     <g id="text_7">
      <!-- 11500 -->
      <g transform="translate(24.7475 176.837563) scale(0.1 -0.1)">
       <use xlink:href="#DejaVuSans-31"/>
       <use xlink:href="#DejaVuSans-31" transform="translate(63.623047 0)"/>
       <use xlink:href="#DejaVuSans-35" transform="translate(127.246094 0)"/>
       <use xlink:href="#DejaVuSans-30" transform="translate(190.869141 0)"/>
       <use xlink:href="#DejaVuSans-30" transform="translate(254.492188 0)"/>
      </g>
     </g>
    </g>
    <g id="ytick_4">
     <g id="line2d_25">
      <g>
       <use xlink:href="#m4429f332bf" x="63.56" y="140.266125" style="stroke: #000000; stroke-width: 0.8"/>
      </g>
     </g>
     <g id="text_8">
      <!-- 12000 -->
      <g transform="translate(24.7475 144.065344) scale(0.1 -0.1)">
       <use xlink:href="#DejaVuSans-31"/>
       <use xlink:href="#DejaVuSans-32" transform="translate(63.623047 0)"/>
       <use xlink:href="#DejaVuSans-30" transform="translate(127.246094 0)"/>
       <use xlink:href="#DejaVuSans-30" transform="translate(190.869141 0)"/>
       <use xlink:href="#DejaVuSans-30" transform="translate(254.492188 0)"/>
      </g>
     </g>
    </g>
    <g id="ytick_5">
     <g id="line2d_26">
      <g>
       <use xlink:href="#m4429f332bf" x="63.56" y="107.493905" style="stroke: #000000; stroke-width: 0.8"/>
      </g>
     </g>
     <g id="text_9">
      <!-- 12500 -->
      <g transform="translate(24.7475 111.293124) scale(0.1 -0.1)">
       <use xlink:href="#DejaVuSans-31"/>
       <use xlink:href="#DejaVuSans-32" transform="translate(63.623047 0)"/>
       <use xlink:href="#DejaVuSans-35" transform="translate(127.246094 0)"/>
       <use xlink:href="#DejaVuSans-30" transform="translate(190.869141 0)"/>
       <use xlink:href="#DejaVuSans-30" transform="translate(254.492188 0)"/>
      </g>
     </g>
    </g>
    <g id="ytick_6">
     <g id="line2d_27">
      <g>
       <use xlink:href="#m4429f332bf" x="63.56" y="74.721685" style="stroke: #000000; stroke-width: 0.8"/>
      </g>
     </g>
     <g id="text_10">
      <!-- 13000 -->
      <g transform="translate(24.7475 78.520904) scale(0.1 -0.1)">
       <use xlink:href="#DejaVuSans-31"/>
       <use xlink:href="#DejaVuSans-33" transform="translate(63.623047 0)"/>
       <use xlink:href="#DejaVuSans-30" transform="translate(127.246094 0)"/>
       <use xlink:href="#DejaVuSans-30" transform="translate(190.869141 0)"/>
       <use xlink:href="#DejaVuSans-30" transform="translate(254.492188 0)"/>
      </g>
     </g>
    </g>
    <g id="ytick_7">
     <g id="line2d_28">
      <g>
       <use xlink:href="#m4429f332bf" x="63.56" y="41.949466" style="stroke: #000000; stroke-width: 0.8"/>
      </g>
     </g>
     <g id="text_11">
      <!-- 13500 -->
      <g transform="translate(24.7475 45.748685) scale(0.1 -0.1)">
       <use xlink:href="#DejaVuSans-31"/>
       <use xlink:href="#DejaVuSans-33" transform="translate(63.623047 0)"/>
       <use xlink:href="#DejaVuSans-35" transform="translate(127.246094 0)"/>
       <use xlink:href="#DejaVuSans-30" transform="translate(190.869141 0)"/>
       <use xlink:href="#DejaVuSans-30" transform="translate(254.492188 0)"/>
      </g>
     </g>
    </g>
    <g id="text_12">
     <!-- Selector score -->
     <g transform="translate(18.667813 170.3665) rotate(-90) scale(0.1 -0.1)">
      <defs>
       <path id="DejaVuSans-53" d="M 3425 4513 
L 3425 3897 
Q 3066 4069 2747 4153 
Q 2428 4238 2131 4238 
Q 1616 4238 1336 4038 
Q 1056 3838 1056 3469 
Q 1056 3159 1242 3001 
Q 1428 2844 1947 2747 
L 2328 2669 
Q 3034 2534 3370 2195 
Q 3706 1856 3706 1288 
Q 3706 609 3251 259 
Q 2797 -91 1919 -91 
Q 1588 -91 1214 -16 
Q 841 59 441 206 
L 441 856 
Q 825 641 1194 531 
Q 1563 422 1919 422 
Q 2459 422 2753 634 
Q 3047 847 3047 1241 
Q 3047 1584 2836 1778 
Q 2625 1972 2144 2069 
L 1759 2144 
Q 1053 2284 737 2584 
Q 422 2884 422 3419 
Q 422 4038 858 4394 
Q 1294 4750 2059 4750 
Q 2388 4750 2728 4690 
Q 3069 4631 3425 4513 
z
" transform="scale(0.015625)"/>
       <path id="DejaVuSans-63" d="M 3122 3366 
L 3122 2828 
Q 2878 2963 2633 3030 
Q 2388 3097 2138 3097 
Q 1578 3097 1268 2742 
Q 959 2388 959 1747 
Q 959 1106 1268 751 
Q 1578 397 2138 397 
Q 2388 397 2633 464 
Q 2878 531 3122 666 
L 3122 134 
Q 2881 22 2623 -34 
Q 2366 -91 2075 -91 
Q 1284 -91 818 406 
Q 353 903 353 1747 
Q 353 2603 823 3093 
Q 1294 3584 2113 3584 
Q 2378 3584 2631 3529 
Q 2884 3475 3122 3366 
z
" transform="scale(0.015625)"/>
       <path id="DejaVuSans-72" d="M 2631 2963 
Q 2534 3019 2420 3045 
Q 2306 3072 2169 3072 
Q 1681 3072 1420 2755 
Q 1159 2438 1159 1844 
L 1159 0 
L 581 0 
L 581 3500 
L 1159 3500 
L 1159 2956 
Q 1341 3275 1631 3429 
Q 1922 3584 2338 3584 
Q 2397 3584 2469 3576 
Q 2541 3569 2628 3553 
L 2631 2963 
z
" transform="scale(0.015625)"/>
       <path id="DejaVuSans-73" d="M 2834 3397 
L 2834 2853 
Q 2591 2978 2328 3040 
Q 2066 3103 1784 3103 
Q 1356 3103 1142 2972 
Q 928 2841 928 2578 
Q 928 2378 1081 2264 
Q 1234 2150 1697 2047 
L 1894 2003 
Q 2506 1872 2764 1633 
Q 3022 1394 3022 966 
Q 3022 478 2636 193 
Q 2250 -91 1575 -91 
Q 1294 -91 989 -36 
Q 684 19 347 128 
L 347 722 
Q 666 556 975 473 
Q 1284 391 1588 391 
Q 1994 391 2212 530 
Q 2431 669 2431 922 
Q 2431 1156 2273 1281 
Q 2116 1406 1581 1522 
L 1381 1569 
Q 847 1681 609 1914 
Q 372 2147 372 2553 
Q 372 3047 722 3315 
Q 1072 3584 1716 3584 
Q 2034 3584 2315 3537 
Q 2597 3491 2834 3397 
z
" transform="scale(0.015625)"/>
      </defs>
      <use xlink:href="#DejaVuSans-53"/>
      <use xlink:href="#DejaVuSans-65" transform="translate(63.476562 0)"/>
      <use xlink:href="#DejaVuSans-6c" transform="translate(125 0)"/>
      <use xlink:href="#DejaVuSans-65" transform="translate(152.783203 0)"/>
      <use xlink:href="#DejaVuSans-63" transform="translate(214.306641 0)"/>
      <use xlink:href="#DejaVuSans-74" transform="translate(269.287109 0)"/>
      <use xlink:href="#DejaVuSans-6f" transform="translate(308.496094 0)"/>
      <use xlink:href="#DejaVuSans-72" transform="translate(369.677734 0)"/>
      <use xlink:href="#DejaVuSans-20" transform="translate(410.791016 0)"/>
      <use xlink:href="#DejaVuSans-73" transform="translate(442.578125 0)"/>
      <use xlink:href="#DejaVuSans-63" transform="translate(494.677734 0)"/>
      <use xlink:href="#DejaVuSans-6f" transform="translate(549.658203 0)"/>
      <use xlink:href="#DejaVuSans-72" transform="translate(610.839844 0)"/>
      <use xlink:href="#DejaVuSans-65" transform="translate(649.703125 0)"/>
     </g>
    </g>
   </g>
   <g id="line2d_29">
    <path d="M 83.089091 228.056709 
L 83.089091 59.500138 
L 83.089091 232.916727 
L 83.089091 232.69225 
L 219.591578 228.056709 
L 219.591578 59.500138 
L 219.591578 232.916727 
L 219.591578 232.69225 
L 278.38 228.056709 
L 278.38 59.500138 
L 278.38 232.916727 
L 278.38 232.69225 
L 414.882488 228.056709 
L 414.882488 59.500138 
L 414.882488 232.916727 
L 414.882488 232.69225 
L 473.670909 228.056709 
L 473.670909 59.500138 
L 473.670909 232.916727 
L 473.670909 232.69225 
" clip-path="url(#p5d5f6cfc43)" style="fill: none; stroke: #1f77b4; stroke-width: 1.5; stroke-linecap: square"/>
    <defs>
     <path id="me2dbd7aa28" d="M 0 3 
C 0.795609 3 1.55874 2.683901 2.12132 2.12132 
C 2.683901 1.55874 3 0.795609 3 0 
C 3 -0.795609 2.683901 -1.55874 2.12132 -2.12132 
C 1.55874 -2.683901 0.795609 -3 0 -3 
C -0.795609 -3 -1.55874 -2.683901 -2.12132 -2.12132 
C -2.683901 -1.55874 -3 -0.795609 -3 0 
C -3 0.795609 -2.683901 1.55874 -2.12132 2.12132 
C -1.55874 2.683901 -0.795609 3 0 3 
z
" style="stroke: #1f77b4"/>
    </defs>
    <g clip-path="url(#p5d5f6cfc43)">
     <use xlink:href="#me2dbd7aa28" x="83.089091" y="228.056709" style="fill: #1f77b4; stroke: #1f77b4"/>
     <use xlink:href="#me2dbd7aa28" x="83.089091" y="59.500138" style="fill: #1f77b4; stroke: #1f77b4"/>
     <use xlink:href="#me2dbd7aa28" x="83.089091" y="232.916727" style="fill: #1f77b4; stroke: #1f77b4"/>
     <use xlink:href="#me2dbd7aa28" x="83.089091" y="232.69225" style="fill: #1f77b4; stroke: #1f77b4"/>
     <use xlink:href="#me2dbd7aa28" x="219.591578" y="228.056709" style="fill: #1f77b4; stroke: #1f77b4"/>
     <use xlink:href="#me2dbd7aa28" x="219.591578" y="59.500138" style="fill: #1f77b4; stroke: #1f77b4"/>
     <use xlink:href="#me2dbd7aa28" x="219.591578" y="232.916727" style="fill: #1f77b4; stroke: #1f77b4"/>
     <use xlink:href="#me2dbd7aa28" x="219.591578" y="232.69225" style="fill: #1f77b4; stroke: #1f77b4"/>
     <use xlink:href="#me2dbd7aa28" x="278.38" y="228.056709" style="fill: #1f77b4; stroke: #1f77b4"/>
     <use xlink:href="#me2dbd7aa28" x="278.38" y="59.500138" style="fill: #1f77b4; stroke: #1f77b4"/>
     <use xlink:href="#me2dbd7aa28" x="278.38" y="232.916727" style="fill: #1f77b4; stroke: #1f77b4"/>
     <use xlink:href="#me2dbd7aa28" x="278.38" y="232.69225" style="fill: #1f77b4; stroke: #1f77b4"/>
     <use xlink:href="#me2dbd7aa28" x="414.882488" y="228.056709" style="fill: #1f77b4; stroke: #1f77b4"/>
     <use xlink:href="#me2dbd7aa28" x="414.882488" y="59.500138" style="fill: #1f77b4; stroke: #1f77b4"/>
     <use xlink:href="#me2dbd7aa28" x="414.882488" y="232.916727" style="fill: #1f77b4; stroke: #1f77b4"/>
     <use xlink:href="#me2dbd7aa28" x="414.882488" y="232.69225" style="fill: #1f77b4; stroke: #1f77b4"/>
     <use xlink:href="#me2dbd7aa28" x="473.670909" y="228.056709" style="fill: #1f77b4; stroke: #1f77b4"/>
     <use xlink:href="#me2dbd7aa28" x="473.670909" y="59.500138" style="fill: #1f77b4; stroke: #1f77b4"/>
     <use xlink:href="#me2dbd7aa28" x="473.670909" y="232.916727" style="fill: #1f77b4; stroke: #1f77b4"/>
     <use xlink:href="#me2dbd7aa28" x="473.670909" y="232.69225" style="fill: #1f77b4; stroke: #1f77b4"/>
    </g>
   </g>
   <g id="line2d_30">
    <path d="M 83.089091 51.908652 
L 83.089091 43.433065 
L 83.089091 231.523353 
L 83.089091 99.309855 
L 219.591578 55.440056 
L 219.591578 47.71665 
L 219.591578 232.719082 
L 219.591578 204.921596 
L 278.38 164.886522 
L 278.38 55.794451 
L 278.38 232.916727 
L 278.38 232.69225 
L 414.882488 228.056709 
L 414.882488 59.500138 
L 414.882488 232.916727 
L 414.882488 232.69225 
L 473.670909 228.056709 
L 473.670909 59.500138 
L 473.670909 232.916727 
L 473.670909 232.69225 
" clip-path="url(#p5d5f6cfc43)" style="fill: none; stroke: #ff7f0e; stroke-width: 1.5; stroke-linecap: square"/>
    <defs>
     <path id="m46dd061cdc" d="M 0 3 
C 0.795609 3 1.55874 2.683901 2.12132 2.12132 
C 2.683901 1.55874 3 0.795609 3 0 
C 3 -0.795609 2.683901 -1.55874 2.12132 -2.12132 
C 1.55874 -2.683901 0.795609 -3 0 -3 
C -0.795609 -3 -1.55874 -2.683901 -2.12132 -2.12132 
C -2.683901 -1.55874 -3 -0.795609 -3 0 
C -3 0.795609 -2.683901 1.55874 -2.12132 2.12132 
C -1.55874 2.683901 -0.795609 3 0 3 
z
" style="stroke: #ff7f0e"/>
    </defs>
    <g clip-path="url(#p5d5f6cfc43)">
     <use xlink:href="#m46dd061cdc" x="83.089091" y="51.908652" style="fill: #ff7f0e; stroke: #ff7f0e"/>
     <use xlink:href="#m46dd061cdc" x="83.089091" y="43.433065" style="fill: #ff7f0e; stroke: #ff7f0e"/>
     <use xlink:href="#m46dd061cdc" x="83.089091" y="231.523353" style="fill: #ff7f0e; stroke: #ff7f0e"/>
     <use xlink:href="#m46dd061cdc" x="83.089091" y="99.309855" style="fill: #ff7f0e; stroke: #ff7f0e"/>
     <use xlink:href="#m46dd061cdc" x="219.591578" y="55.440056" style="fill: #ff7f0e; stroke: #ff7f0e"/>
     <use xlink:href="#m46dd061cdc" x="219.591578" y="47.71665" style="fill: #ff7f0e; stroke: #ff7f0e"/>
     <use xlink:href="#m46dd061cdc" x="219.591578" y="232.719082" style="fill: #ff7f0e; stroke: #ff7f0e"/>
     <use xlink:href="#m46dd061cdc" x="219.591578" y="204.921596" style="fill: #ff7f0e; stroke: #ff7f0e"/>
     <use xlink:href="#m46dd061cdc" x="278.38" y="164.886522" style="fill: #ff7f0e; stroke: #ff7f0e"/>
     <use xlink:href="#m46dd061cdc" x="278.38" y="55.794451" style="fill: #ff7f0e; stroke: #ff7f0e"/>
     <use xlink:href="#m46dd061cdc" x="278.38" y="232.916727" style="fill: #ff7f0e; stroke: #ff7f0e"/>
     <use xlink:href="#m46dd061cdc" x="278.38" y="232.69225" style="fill: #ff7f0e; stroke: #ff7f0e"/>
     <use xlink:href="#m46dd061cdc" x="414.882488" y="228.056709" style="fill: #ff7f0e; stroke: #ff7f0e"/>
     <use xlink:href="#m46dd061cdc" x="414.882488" y="59.500138" style="fill: #ff7f0e; stroke: #ff7f0e"/>
     <use xlink:href="#m46dd061cdc" x="414.882488" y="232.916727" style="fill: #ff7f0e; stroke: #ff7f0e"/>
     <use xlink:href="#m46dd061cdc" x="414.882488" y="232.69225" style="fill: #ff7f0e; stroke: #ff7f0e"/>
     <use xlink:href="#m46dd061cdc" x="473.670909" y="228.056709" style="fill: #ff7f0e; stroke: #ff7f0e"/>
     <use xlink:href="#m46dd061cdc" x="473.670909" y="59.500138" style="fill: #ff7f0e; stroke: #ff7f0e"/>
     <use xlink:href="#m46dd061cdc" x="473.670909" y="232.916727" style="fill: #ff7f0e; stroke: #ff7f0e"/>
     <use xlink:href="#m46dd061cdc" x="473.670909" y="232.69225" style="fill: #ff7f0e; stroke: #ff7f0e"/>
    </g>
   </g>
   <g id="line2d_31">
    <path d="M 83.089091 49.709108 
L 83.089091 39.881778 
L 83.089091 230.502242 
L 83.089091 74.835942 
L 219.591578 115.716312 
L 219.591578 54.084131 
L 219.591578 232.881794 
L 219.591578 232.229029 
L 278.38 218.104841 
L 278.38 58.683398 
L 278.38 232.890851 
L 278.38 232.69225 
L 414.882488 228.056709 
L 414.882488 59.500138 
L 414.882488 232.915433 
L 414.882488 232.69225 
L 473.670909 228.056709 
L 473.670909 59.500138 
L 473.670909 232.915433 
L 473.670909 232.69225 
" clip-path="url(#p5d5f6cfc43)" style="fill: none; stroke: #2ca02c; stroke-width: 1.5; stroke-linecap: square"/>
    <defs>
     <path id="m3ca0a39f0d" d="M 0 3 
C 0.795609 3 1.55874 2.683901 2.12132 2.12132 
C 2.683901 1.55874 3 0.795609 3 0 
C 3 -0.795609 2.683901 -1.55874 2.12132 -2.12132 
C 1.55874 -2.683901 0.795609 -3 0 -3 
C -0.795609 -3 -1.55874 -2.683901 -2.12132 -2.12132 
C -2.683901 -1.55874 -3 -0.795609 -3 0 
C -3 0.795609 -2.683901 1.55874 -2.12132 2.12132 
C -1.55874 2.683901 -0.795609 3 0 3 
z
" style="stroke: #2ca02c"/>
    </defs>
    <g clip-path="url(#p5d5f6cfc43)">
     <use xlink:href="#m3ca0a39f0d" x="83.089091" y="49.709108" style="fill: #2ca02c; stroke: #2ca02c"/>
     <use xlink:href="#m3ca0a39f0d" x="83.089091" y="39.881778" style="fill: #2ca02c; stroke: #2ca02c"/>
     <use xlink:href="#m3ca0a39f0d" x="83.089091" y="230.502242" style="fill: #2ca02c; stroke: #2ca02c"/>
     <use xlink:href="#m3ca0a39f0d" x="83.089091" y="74.835942" style="fill: #2ca02c; stroke: #2ca02c"/>
     <use xlink:href="#m3ca0a39f0d" x="219.591578" y="115.716312" style="fill: #2ca02c; stroke: #2ca02c"/>
     <use xlink:href="#m3ca0a39f0d" x="219.591578" y="54.084131" style="fill: #2ca02c; stroke: #2ca02c"/>
     <use xlink:href="#m3ca0a39f0d" x="219.591578" y="232.881794" style="fill: #2ca02c; stroke: #2ca02c"/>
     <use xlink:href="#m3ca0a39f0d" x="219.591578" y="232.229029" style="fill: #2ca02c; stroke: #2ca02c"/>
     <use xlink:href="#m3ca0a39f0d" x="278.38" y="218.104841" style="fill: #2ca02c; stroke: #2ca02c"/>
     <use xlink:href="#m3ca0a39f0d" x="278.38" y="58.683398" style="fill: #2ca02c; stroke: #2ca02c"/>
     <use xlink:href="#m3ca0a39f0d" x="278.38" y="232.890851" style="fill: #2ca02c; stroke: #2ca02c"/>
     <use xlink:href="#m3ca0a39f0d" x="278.38" y="232.69225" style="fill: #2ca02c; stroke: #2ca02c"/>
     <use xlink:href="#m3ca0a39f0d" x="414.882488" y="228.056709" style="fill: #2ca02c; stroke: #2ca02c"/>
     <use xlink:href="#m3ca0a39f0d" x="414.882488" y="59.500138" style="fill: #2ca02c; stroke: #2ca02c"/>
     <use xlink:href="#m3ca0a39f0d" x="414.882488" y="232.915433" style="fill: #2ca02c; stroke: #2ca02c"/>
     <use xlink:href="#m3ca0a39f0d" x="414.882488" y="232.69225" style="fill: #2ca02c; stroke: #2ca02c"/>
     <use xlink:href="#m3ca0a39f0d" x="473.670909" y="228.056709" style="fill: #2ca02c; stroke: #2ca02c"/>
     <use xlink:href="#m3ca0a39f0d" x="473.670909" y="59.500138" style="fill: #2ca02c; stroke: #2ca02c"/>
     <use xlink:href="#m3ca0a39f0d" x="473.670909" y="232.915433" style="fill: #2ca02c; stroke: #2ca02c"/>
     <use xlink:href="#m3ca0a39f0d" x="473.670909" y="232.69225" style="fill: #2ca02c; stroke: #2ca02c"/>
    </g>
   </g>
   <g id="line2d_32">
    <path d="M 83.089091 56.116466 
L 83.089091 41.815419 
L 83.089091 230.007431 
L 83.089091 130.699746 
L 219.591578 57.246621 
L 219.591578 45.972129 
L 219.591578 230.007431 
L 219.591578 130.71435 
L 278.38 57.246621 
L 278.38 45.972129 
L 278.38 230.007431 
L 278.38 130.71435 
L 414.882488 57.246621 
L 414.882488 45.972129 
L 414.882488 230.007431 
L 414.882488 130.71435 
L 473.670909 57.246621 
L 473.670909 45.972129 
L 473.670909 230.007431 
L 473.670909 130.71435 
" clip-path="url(#p5d5f6cfc43)" style="fill: none; stroke: #d62728; stroke-width: 1.5; stroke-linecap: square"/>
    <defs>
     <path id="m2a36933f95" d="M 0 3 
C 0.795609 3 1.55874 2.683901 2.12132 2.12132 
C 2.683901 1.55874 3 0.795609 3 0 
C 3 -0.795609 2.683901 -1.55874 2.12132 -2.12132 
C 1.55874 -2.683901 0.795609 -3 0 -3 
C -0.795609 -3 -1.55874 -2.683901 -2.12132 -2.12132 
C -2.683901 -1.55874 -3 -0.795609 -3 0 
C -3 0.795609 -2.683901 1.55874 -2.12132 2.12132 
C -1.55874 2.683901 -0.795609 3 0 3 
z
" style="stroke: #d62728"/>
    </defs>
    <g clip-path="url(#p5d5f6cfc43)">
     <use xlink:href="#m2a36933f95" x="83.089091" y="56.116466" style="fill: #d62728; stroke: #d62728"/>
     <use xlink:href="#m2a36933f95" x="83.089091" y="41.815419" style="fill: #d62728; stroke: #d62728"/>
     <use xlink:href="#m2a36933f95" x="83.089091" y="230.007431" style="fill: #d62728; stroke: #d62728"/>
     <use xlink:href="#m2a36933f95" x="83.089091" y="130.699746" style="fill: #d62728; stroke: #d62728"/>
     <use xlink:href="#m2a36933f95" x="219.591578" y="57.246621" style="fill: #d62728; stroke: #d62728"/>
     <use xlink:href="#m2a36933f95" x="219.591578" y="45.972129" style="fill: #d62728; stroke: #d62728"/>
     <use xlink:href="#m2a36933f95" x="219.591578" y="230.007431" style="fill: #d62728; stroke: #d62728"/>
     <use xlink:href="#m2a36933f95" x="219.591578" y="130.71435" style="fill: #d62728; stroke: #d62728"/>
     <use xlink:href="#m2a36933f95" x="278.38" y="57.246621" style="fill: #d62728; stroke: #d62728"/>
     <use xlink:href="#m2a36933f95" x="278.38" y="45.972129" style="fill: #d62728; stroke: #d62728"/>
     <use xlink:href="#m2a36933f95" x="278.38" y="230.007431" style="fill: #d62728; stroke: #d62728"/>
     <use xlink:href="#m2a36933f95" x="278.38" y="130.71435" style="fill: #d62728; stroke: #d62728"/>
     <use xlink:href="#m2a36933f95" x="414.882488" y="57.246621" style="fill: #d62728; stroke: #d62728"/>
     <use xlink:href="#m2a36933f95" x="414.882488" y="45.972129" style="fill: #d62728; stroke: #d62728"/>
     <use xlink:href="#m2a36933f95" x="414.882488" y="230.007431" style="fill: #d62728; stroke: #d62728"/>
     <use xlink:href="#m2a36933f95" x="414.882488" y="130.71435" style="fill: #d62728; stroke: #d62728"/>
     <use xlink:href="#m2a36933f95" x="473.670909" y="57.246621" style="fill: #d62728; stroke: #d62728"/>
     <use xlink:href="#m2a36933f95" x="473.670909" y="45.972129" style="fill: #d62728; stroke: #d62728"/>
     <use xlink:href="#m2a36933f95" x="473.670909" y="230.007431" style="fill: #d62728; stroke: #d62728"/>
     <use xlink:href="#m2a36933f95" x="473.670909" y="130.71435" style="fill: #d62728; stroke: #d62728"/>
    </g>
   </g>
   <g id="line2d_33">
    <path d="M 83.089091 46.673488 
L 83.089091 36.691273 
L 83.089091 224.516891 
L 83.089091 76.692371 
L 219.591578 50.103909 
L 219.591578 40.256981 
L 219.591578 231.25536 
L 219.591578 85.258543 
L 278.38 52.287518 
L 278.38 41.753532 
L 278.38 231.644739 
L 278.38 96.737029 
L 414.882488 54.921358 
L 414.882488 45.937539 
L 414.882488 232.598617 
L 414.882488 183.059301 
L 473.670909 55.694147 
L 473.670909 47.299825 
L 473.670909 232.713314 
L 473.670909 213.005666 
" clip-path="url(#p5d5f6cfc43)" style="fill: none; stroke: #9467bd; stroke-width: 1.5; stroke-linecap: square"/>
    <defs>
     <path id="mb75ff8dfa5" d="M 0 3 
C 0.795609 3 1.55874 2.683901 2.12132 2.12132 
C 2.683901 1.55874 3 0.795609 3 0 
C 3 -0.795609 2.683901 -1.55874 2.12132 -2.12132 
C 1.55874 -2.683901 0.795609 -3 0 -3 
C -0.795609 -3 -1.55874 -2.683901 -2.12132 -2.12132 
C -2.683901 -1.55874 -3 -0.795609 -3 0 
C -3 0.795609 -2.683901 1.55874 -2.12132 2.12132 
C -1.55874 2.683901 -0.795609 3 0 3 
z
" style="stroke: #9467bd"/>
    </defs>
    <g clip-path="url(#p5d5f6cfc43)">
     <use xlink:href="#mb75ff8dfa5" x="83.089091" y="46.673488" style="fill: #9467bd; stroke: #9467bd"/>
     <use xlink:href="#mb75ff8dfa5" x="83.089091" y="36.691273" style="fill: #9467bd; stroke: #9467bd"/>
     <use xlink:href="#mb75ff8dfa5" x="83.089091" y="224.516891" style="fill: #9467bd; stroke: #9467bd"/>
     <use xlink:href="#mb75ff8dfa5" x="83.089091" y="76.692371" style="fill: #9467bd; stroke: #9467bd"/>
     <use xlink:href="#mb75ff8dfa5" x="219.591578" y="50.103909" style="fill: #9467bd; stroke: #9467bd"/>
     <use xlink:href="#mb75ff8dfa5" x="219.591578" y="40.256981" style="fill: #9467bd; stroke: #9467bd"/>
     <use xlink:href="#mb75ff8dfa5" x="219.591578" y="231.25536" style="fill: #9467bd; stroke: #9467bd"/>
     <use xlink:href="#mb75ff8dfa5" x="219.591578" y="85.258543" style="fill: #9467bd; stroke: #9467bd"/>
     <use xlink:href="#mb75ff8dfa5" x="278.38" y="52.287518" style="fill: #9467bd; stroke: #9467bd"/>
     <use xlink:href="#mb75ff8dfa5" x="278.38" y="41.753532" style="fill: #9467bd; stroke: #9467bd"/>
     <use xlink:href="#mb75ff8dfa5" x="278.38" y="231.644739" style="fill: #9467bd; stroke: #9467bd"/>
     <use xlink:href="#mb75ff8dfa5" x="278.38" y="96.737029" style="fill: #9467bd; stroke: #9467bd"/>
     <use xlink:href="#mb75ff8dfa5" x="414.882488" y="54.921358" style="fill: #9467bd; stroke: #9467bd"/>
     <use xlink:href="#mb75ff8dfa5" x="414.882488" y="45.937539" style="fill: #9467bd; stroke: #9467bd"/>
     <use xlink:href="#mb75ff8dfa5" x="414.882488" y="232.598617" style="fill: #9467bd; stroke: #9467bd"/>
     <use xlink:href="#mb75ff8dfa5" x="414.882488" y="183.059301" style="fill: #9467bd; stroke: #9467bd"/>
     <use xlink:href="#mb75ff8dfa5" x="473.670909" y="55.694147" style="fill: #9467bd; stroke: #9467bd"/>
     <use xlink:href="#mb75ff8dfa5" x="473.670909" y="47.299825" style="fill: #9467bd; stroke: #9467bd"/>
     <use xlink:href="#mb75ff8dfa5" x="473.670909" y="232.713314" style="fill: #9467bd; stroke: #9467bd"/>
     <use xlink:href="#mb75ff8dfa5" x="473.670909" y="213.005666" style="fill: #9467bd; stroke: #9467bd"/>
    </g>
   </g>
   <g id="patch_3">
    <path d="M 63.56 242.728 
L 63.56 26.88 
" style="fill: none; stroke: #000000; stroke-width: 0.8; stroke-linejoin: miter; stroke-linecap: square"/>
   </g>
   <g id="patch_4">
    <path d="M 493.2 242.728 
L 493.2 26.88 
" style="fill: none; stroke: #000000; stroke-width: 0.8; stroke-linejoin: miter; stroke-linecap: square"/>
   </g>
   <g id="patch_5">
    <path d="M 63.56 242.728 
L 493.2 242.728 
" style="fill: none; stroke: #000000; stroke-width: 0.8; stroke-linejoin: miter; stroke-linecap: square"/>
   </g>
   <g id="patch_6">
    <path d="M 63.56 26.88 
L 493.2 26.88 
" style="fill: none; stroke: #000000; stroke-width: 0.8; stroke-linejoin: miter; stroke-linecap: square"/>
   </g>
   <g id="text_13">
    <!-- Planner scaling: bged_hard_H10_A6_S120 -->
    <g transform="translate(152.673438 20.88) scale(0.12 -0.12)">
     <defs>
      <path id="DejaVuSans-50" d="M 1259 4147 
L 1259 2394 
L 2053 2394 
Q 2494 2394 2734 2622 
Q 2975 2850 2975 3272 
Q 2975 3691 2734 3919 
Q 2494 4147 2053 4147 
L 1259 4147 
z
M 628 4666 
L 2053 4666 
Q 2838 4666 3239 4311 
Q 3641 3956 3641 3272 
Q 3641 2581 3239 2228 
Q 2838 1875 2053 1875 
L 1259 1875 
L 1259 0 
L 628 0 
L 628 4666 
z
" transform="scale(0.015625)"/>
      <path id="DejaVuSans-3a" d="M 750 794 
L 1409 794 
L 1409 0 
L 750 0 
L 750 794 
z
M 750 3309 
L 1409 3309 
L 1409 2516 
L 750 2516 
L 750 3309 
z
" transform="scale(0.015625)"/>
      <path id="DejaVuSans-5f" d="M 3263 -1063 
L 3263 -1509 
L -63 -1509 
L -63 -1063 
L 3263 -1063 
z
" transform="scale(0.015625)"/>
      <path id="DejaVuSans-68" d="M 3513 2113 
L 3513 0 
L 2938 0 
L 2938 2094 
Q 2938 2591 2744 2837 
Q 2550 3084 2163 3084 
Q 1697 3084 1428 2787 
Q 1159 2491 1159 1978 
L 1159 0 
L 581 0 
L 581 4863 
L 1159 4863 
L 1159 2956 
Q 1366 3272 1645 3428 
Q 1925 3584 2291 3584 
Q 2894 3584 3203 3211 
Q 3513 2838 3513 2113 
z
" transform="scale(0.015625)"/>
      <path id="DejaVuSans-48" d="M 628 4666 
L 1259 4666 
L 1259 2753 
L 3553 2753 
L 3553 4666 
L 4184 4666 
L 4184 0 
L 3553 0 
L 3553 2222 
L 1259 2222 
L 1259 0 
L 628 0 
L 628 4666 
z
" transform="scale(0.015625)"/>
      <path id="DejaVuSans-41" d="M 2188 4044 
L 1331 1722 
L 3047 1722 
L 2188 4044 
z
M 1831 4666 
L 2547 4666 
L 4325 0 
L 3669 0 
L 3244 1197 
L 1141 1197 
L 716 0 
L 50 0 
L 1831 4666 
z
" transform="scale(0.015625)"/>
      <path id="DejaVuSans-36" d="M 2113 2584 
Q 1688 2584 1439 2293 
Q 1191 2003 1191 1497 
Q 1191 994 1439 701 
Q 1688 409 2113 409 
Q 2538 409 2786 701 
Q 3034 994 3034 1497 
Q 3034 2003 2786 2293 
Q 2538 2584 2113 2584 
z
M 3366 4563 
L 3366 3988 
Q 3128 4100 2886 4159 
Q 2644 4219 2406 4219 
Q 1781 4219 1451 3797 
Q 1122 3375 1075 2522 
Q 1259 2794 1537 2939 
Q 1816 3084 2150 3084 
Q 2853 3084 3261 2657 
Q 3669 2231 3669 1497 
Q 3669 778 3244 343 
Q 2819 -91 2113 -91 
Q 1303 -91 875 529 
Q 447 1150 447 2328 
Q 447 3434 972 4092 
Q 1497 4750 2381 4750 
Q 2619 4750 2861 4703 
Q 3103 4656 3366 4563 
z
" transform="scale(0.015625)"/>
     </defs>
     <use xlink:href="#DejaVuSans-50"/>
     <use xlink:href="#DejaVuSans-6c" transform="translate(60.302734 0)"/>
     <use xlink:href="#DejaVuSans-61" transform="translate(88.085938 0)"/>
     <use xlink:href="#DejaVuSans-6e" transform="translate(149.365234 0)"/>
     <use xlink:href="#DejaVuSans-6e" transform="translate(212.744141 0)"/>
     <use xlink:href="#DejaVuSans-65" transform="translate(276.123047 0)"/>
     <use xlink:href="#DejaVuSans-72" transform="translate(337.646484 0)"/>
     <use xlink:href="#DejaVuSans-20" transform="translate(378.759766 0)"/>
     <use xlink:href="#DejaVuSans-73" transform="translate(410.546875 0)"/>
     <use xlink:href="#DejaVuSans-63" transform="translate(462.646484 0)"/>
     <use xlink:href="#DejaVuSans-61" transform="translate(517.626953 0)"/>
     <use xlink:href="#DejaVuSans-6c" transform="translate(578.90625 0)"/>
     <use xlink:href="#DejaVuSans-69" transform="translate(606.689453 0)"/>
     <use xlink:href="#DejaVuSans-6e" transform="translate(634.472656 0)"/>
     <use xlink:href="#DejaVuSans-67" transform="translate(697.851562 0)"/>
     <use xlink:href="#DejaVuSans-3a" transform="translate(761.328125 0)"/>
     <use xlink:href="#DejaVuSans-20" transform="translate(795.019531 0)"/>
     <use xlink:href="#DejaVuSans-62" transform="translate(826.806641 0)"/>
     <use xlink:href="#DejaVuSans-67" transform="translate(890.283203 0)"/>
     <use xlink:href="#DejaVuSans-65" transform="translate(953.759766 0)"/>
     <use xlink:href="#DejaVuSans-64" transform="translate(1015.283203 0)"/>
     <use xlink:href="#DejaVuSans-5f" transform="translate(1078.759766 0)"/>
     <use xlink:href="#DejaVuSans-68" transform="translate(1128.759766 0)"/>
     <use xlink:href="#DejaVuSans-61" transform="translate(1192.138672 0)"/>
     <use xlink:href="#DejaVuSans-72" transform="translate(1253.417969 0)"/>
     <use xlink:href="#DejaVuSans-64" transform="translate(1292.78125 0)"/>
     <use xlink:href="#DejaVuSans-5f" transform="translate(1356.257812 0)"/>
     <use xlink:href="#DejaVuSans-48" transform="translate(1406.257812 0)"/>
     <use xlink:href="#DejaVuSans-31" transform="translate(1481.453125 0)"/>
     <use xlink:href="#DejaVuSans-30" transform="translate(1545.076172 0)"/>
     <use xlink:href="#DejaVuSans-5f" transform="translate(1608.699219 0)"/>
     <use xlink:href="#DejaVuSans-41" transform="translate(1658.699219 0)"/>
     <use xlink:href="#DejaVuSans-36" transform="translate(1727.107422 0)"/>
     <use xlink:href="#DejaVuSans-5f" transform="translate(1790.730469 0)"/>
     <use xlink:href="#DejaVuSans-53" transform="translate(1840.730469 0)"/>
     <use xlink:href="#DejaVuSans-31" transform="translate(1904.207031 0)"/>
     <use xlink:href="#DejaVuSans-32" transform="translate(1967.830078 0)"/>
     <use xlink:href="#DejaVuSans-30" transform="translate(2031.453125 0)"/>
    </g>
   </g>
   <g id="legend_1">
    <g id="patch_7">
     <path d="M 68.46 161.638062 
L 147.343438 161.638062 
Q 148.743438 161.638062 148.743438 160.238062 
L 148.743438 109.369937 
Q 148.743438 107.969937 147.343438 107.969937 
L 68.46 107.969937 
Q 67.06 107.969937 67.06 109.369937 
L 67.06 160.238062 
Q 67.06 161.638062 68.46 161.638062 
z
" style="fill: #ffffff; opacity: 0.8; stroke: #cccccc; stroke-linejoin: miter"/>
    </g>
    <g id="line2d_34">
     <path d="M 69.86 113.638844 
L 76.86 113.638844 
L 83.86 113.638844 
" style="fill: none; stroke: #1f77b4; stroke-width: 1.5; stroke-linecap: square"/>
     <g>
      <use xlink:href="#me2dbd7aa28" x="76.86" y="113.638844" style="fill: #1f77b4; stroke: #1f77b4"/>
     </g>
    </g>
    <g id="text_14">
     <!-- beam -->
     <g transform="translate(89.46 116.088844) scale(0.07 -0.07)">
      <defs>
       <path id="DejaVuSans-6d" d="M 3328 2828 
Q 3544 3216 3844 3400 
Q 4144 3584 4550 3584 
Q 5097 3584 5394 3201 
Q 5691 2819 5691 2113 
L 5691 0 
L 5113 0 
L 5113 2094 
Q 5113 2597 4934 2840 
Q 4756 3084 4391 3084 
Q 3944 3084 3684 2787 
Q 3425 2491 3425 1978 
L 3425 0 
L 2847 0 
L 2847 2094 
Q 2847 2600 2669 2842 
Q 2491 3084 2119 3084 
Q 1678 3084 1418 2786 
Q 1159 2488 1159 1978 
L 1159 0 
L 581 0 
L 581 3500 
L 1159 3500 
L 1159 2956 
Q 1356 3278 1631 3431 
Q 1906 3584 2284 3584 
Q 2666 3584 2933 3390 
Q 3200 3197 3328 2828 
z
" transform="scale(0.015625)"/>
      </defs>
      <use xlink:href="#DejaVuSans-62"/>
      <use xlink:href="#DejaVuSans-65" transform="translate(63.476562 0)"/>
      <use xlink:href="#DejaVuSans-61" transform="translate(125 0)"/>
      <use xlink:href="#DejaVuSans-6d" transform="translate(186.279297 0)"/>
     </g>
    </g>
    <g id="line2d_35">
     <path d="M 69.86 123.913531 
L 76.86 123.913531 
L 83.86 123.913531 
" style="fill: none; stroke: #ff7f0e; stroke-width: 1.5; stroke-linecap: square"/>
     <g>
      <use xlink:href="#m46dd061cdc" x="76.86" y="123.913531" style="fill: #ff7f0e; stroke: #ff7f0e"/>
     </g>
    </g>
    <g id="text_15">
     <!-- cem -->
     <g transform="translate(89.46 126.363531) scale(0.07 -0.07)">
      <use xlink:href="#DejaVuSans-63"/>
      <use xlink:href="#DejaVuSans-65" transform="translate(54.980469 0)"/>
      <use xlink:href="#DejaVuSans-6d" transform="translate(116.503906 0)"/>
     </g>
    </g>
    <g id="line2d_36">
     <path d="M 69.86 134.188219 
L 76.86 134.188219 
L 83.86 134.188219 
" style="fill: none; stroke: #2ca02c; stroke-width: 1.5; stroke-linecap: square"/>
     <g>
      <use xlink:href="#m3ca0a39f0d" x="76.86" y="134.188219" style="fill: #2ca02c; stroke: #2ca02c"/>
     </g>
    </g>
    <g id="text_16">
     <!-- evolutionary -->
     <g transform="translate(89.46 136.638219) scale(0.07 -0.07)">
      <defs>
       <path id="DejaVuSans-79" d="M 2059 -325 
Q 1816 -950 1584 -1140 
Q 1353 -1331 966 -1331 
L 506 -1331 
L 506 -850 
L 844 -850 
Q 1081 -850 1212 -737 
Q 1344 -625 1503 -206 
L 1606 56 
L 191 3500 
L 800 3500 
L 1894 763 
L 2988 3500 
L 3597 3500 
L 2059 -325 
z
" transform="scale(0.015625)"/>
      </defs>
      <use xlink:href="#DejaVuSans-65"/>
      <use xlink:href="#DejaVuSans-76" transform="translate(61.523438 0)"/>
      <use xlink:href="#DejaVuSans-6f" transform="translate(120.703125 0)"/>
      <use xlink:href="#DejaVuSans-6c" transform="translate(181.884766 0)"/>
      <use xlink:href="#DejaVuSans-75" transform="translate(209.667969 0)"/>
      <use xlink:href="#DejaVuSans-74" transform="translate(273.046875 0)"/>
      <use xlink:href="#DejaVuSans-69" transform="translate(312.255859 0)"/>
      <use xlink:href="#DejaVuSans-6f" transform="translate(340.039062 0)"/>
      <use xlink:href="#DejaVuSans-6e" transform="translate(401.220703 0)"/>
      <use xlink:href="#DejaVuSans-61" transform="translate(464.599609 0)"/>
      <use xlink:href="#DejaVuSans-72" transform="translate(525.878906 0)"/>
      <use xlink:href="#DejaVuSans-79" transform="translate(566.992188 0)"/>
     </g>
    </g>
    <g id="line2d_37">
     <path d="M 69.86 144.462906 
L 76.86 144.462906 
L 83.86 144.462906 
" style="fill: none; stroke: #d62728; stroke-width: 1.5; stroke-linecap: square"/>
     <g>
      <use xlink:href="#m2a36933f95" x="76.86" y="144.462906" style="fill: #d62728; stroke: #d62728"/>
     </g>
    </g>
    <g id="text_17">
     <!-- open_loop_mcts -->
     <g transform="translate(89.46 146.912906) scale(0.07 -0.07)">
      <defs>
       <path id="DejaVuSans-70" d="M 1159 525 
L 1159 -1331 
L 581 -1331 
L 581 3500 
L 1159 3500 
L 1159 2969 
Q 1341 3281 1617 3432 
Q 1894 3584 2278 3584 
Q 2916 3584 3314 3078 
Q 3713 2572 3713 1747 
Q 3713 922 3314 415 
Q 2916 -91 2278 -91 
Q 1894 -91 1617 61 
Q 1341 213 1159 525 
z
M 3116 1747 
Q 3116 2381 2855 2742 
Q 2594 3103 2138 3103 
Q 1681 3103 1420 2742 
Q 1159 2381 1159 1747 
Q 1159 1113 1420 752 
Q 1681 391 2138 391 
Q 2594 391 2855 752 
Q 3116 1113 3116 1747 
z
" transform="scale(0.015625)"/>
      </defs>
      <use xlink:href="#DejaVuSans-6f"/>
      <use xlink:href="#DejaVuSans-70" transform="translate(61.181641 0)"/>
      <use xlink:href="#DejaVuSans-65" transform="translate(124.658203 0)"/>
      <use xlink:href="#DejaVuSans-6e" transform="translate(186.181641 0)"/>
      <use xlink:href="#DejaVuSans-5f" transform="translate(249.560547 0)"/>
      <use xlink:href="#DejaVuSans-6c" transform="translate(299.560547 0)"/>
      <use xlink:href="#DejaVuSans-6f" transform="translate(327.34375 0)"/>
      <use xlink:href="#DejaVuSans-6f" transform="translate(388.525391 0)"/>
      <use xlink:href="#DejaVuSans-70" transform="translate(449.707031 0)"/>
      <use xlink:href="#DejaVuSans-5f" transform="translate(513.183594 0)"/>
      <use xlink:href="#DejaVuSans-6d" transform="translate(563.183594 0)"/>
      <use xlink:href="#DejaVuSans-63" transform="translate(660.595703 0)"/>
      <use xlink:href="#DejaVuSans-74" transform="translate(715.576172 0)"/>
      <use xlink:href="#DejaVuSans-73" transform="translate(754.785156 0)"/>
     </g>
    </g>
    <g id="line2d_38">
     <path d="M 69.86 154.932281 
L 76.86 154.932281 
L 83.86 154.932281 
" style="fill: none; stroke: #9467bd; stroke-width: 1.5; stroke-linecap: square"/>
     <g>
      <use xlink:href="#mb75ff8dfa5" x="76.86" y="154.932281" style="fill: #9467bd; stroke: #9467bd"/>
     </g>
    </g>
    <g id="text_18">
     <!-- random -->
     <g transform="translate(89.46 157.382281) scale(0.07 -0.07)">
      <use xlink:href="#DejaVuSans-72"/>
      <use xlink:href="#DejaVuSans-61" transform="translate(41.113281 0)"/>
      <use xlink:href="#DejaVuSans-6e" transform="translate(102.392578 0)"/>
      <use xlink:href="#DejaVuSans-64" transform="translate(165.771484 0)"/>
      <use xlink:href="#DejaVuSans-6f" transform="translate(229.248047 0)"/>
      <use xlink:href="#DejaVuSans-6d" transform="translate(290.429688 0)"/>
     </g>
    </g>
   </g>
  </g>
 </g>
 <defs>
  <clipPath id="p5d5f6cfc43">
   <rect x="63.56" y="26.88" width="429.64" height="215.848"/>
  </clipPath>
 </defs>
</svg>
